<?xml version="1.0"?>
<svg width="50" height="50" xmlns="http://www.w3.org/2000/svg" xmlns:svg="http://www.w3.org/2000/svg" xmlns:xlink="http://www.w3.org/1999/xlink">
 <defs>
  <linearGradient id="linearGradient1895" y2="0.59" xlink:href="#linearGradient1864" x2="0.67254" y1="0.91" x1="0.23944"/>
  <linearGradient id="linearGradient1872" y2="0.39216" xlink:href="#linearGradient1864" x2="0.35211" y1="0.029412" x1="0.8169"/>
  <linearGradient id="linearGradient1897" y2="0.43077" xlink:href="#linearGradient1864" x2="0.86268" y1="0.96032" x1="0.31338"/>
  <linearGradient id="linearGradient1871" y2="0.30114" xlink:href="#linearGradient1864" x2="0.40141" y1="-0.073864" x1="0.93662"/>
  <linearGradient id="linearGradient1899" y2="0.38384" xlink:href="#linearGradient1874" x2="0.77459" y1="0.68182" x1="0.10246"/>
  <linearGradient id="linearGradient1892" y2="0.68687" xlink:href="#linearGradient1864" x2="0.60357" y1="1.0505" x1="-0.010714"/>
  <linearGradient id="linearGradient1880">
   <stop id="stop1881" offset="0"/>
   <stop id="stop1883" stop-opacity="0" offset="1"/>
  </linearGradient>
  <linearGradient id="linearGradient1885" y2="0.64646" xlink:href="#linearGradient1880" x2="0.60753" y1="0.92424" x1="-0.043011"/>
  <linearGradient id="linearGradient1874">
   <stop id="stop1875" stop-color="#fff" stop-opacity="0" offset="0"/>
   <stop id="stop1877" stop-color="#fff" stop-opacity="0.247" offset="0.5"/>
   <stop id="stop1876" stop-color="#fff" stop-opacity="0" offset="1"/>
  </linearGradient>
  <linearGradient id="linearGradient1873" y2="0.4596" xlink:href="#linearGradient1874" x2="0.73134" y1="0.65657" x1="0.38806"/>
  <linearGradient id="linearGradient1879" y2="0.5404" xlink:href="#linearGradient1880" x2="0.56364" y1="0.065657" x1="1.2273"/>
  <linearGradient id="linearGradient1864">
   <stop id="stop1865" stop-color="#fff" offset="0"/>
   <stop id="stop1866" stop-color="#fff" stop-opacity="0" offset="1"/>
  </linearGradient>
 </defs>
 <g>
  <title>Layer 1</title>
  <g transform="rotate(90 25.0238 25.0645)" id="g1905" stroke-width="1.25" fill-rule="evenodd">
   <path id="path1195" d="m23.19976,1.036028c-1.969849,-0.008659 -4.24161,0.32812 -6.578281,1.036451c-6.231018,1.8889 -10.590719,5.72714 -9.729988,8.56663c0,0 13.581829,35.816748 13.585339,35.829638c0.860771,2.839493 6.718399,3.413673 12.949192,1.52478c6.231018,-1.888897 10.590729,-5.727139 9.729988,-8.566639l-13.73999,-36.472819c-0.699009,-1.27769 -3.234299,-1.90495 -6.21685,-1.91795l0.000591,-0.000091z"/>
   <path id="path1217" fill="#eca548" d="m20.18066,10.600979c-6.23102,1.888899 -11.884239,1.94467 -13.01479,0.205299c0,0 3.22963,8.841019 3.23373,8.85461c0.860748,2.839489 6.41976,3.41367 12.65044,1.524769c6.231018,-1.88888 10.590729,-5.727129 9.72998,-8.566629l-3.525322,-9.58695c-0.201321,2.803421 -2.45768,5.16832 -9.074499,7.56883l0.000469,0.000071l-0.00001,0z"/>
   <path id="path1842" fill="#dcdcdc" d="m8.37644,9.702747c-1.99082,-5.474669 16.921923,-9.456189 18.91239,-6.868239c2.488499,5.27563 -15.72694,10.05346 -18.91239,6.868239z"/>
   <path id="path1839" fill="#eca548" d="m22.54369,1.215818c-2.017889,0.07361 -4.152689,0.42303 -5.86972,1.05761c-7.067289,2.090281 -10.352669,6.1633 -9.655949,8.154131c1.39357,3.38438 9.614939,1.66853 13.695469,0.274969c6.270973,-2.09028 9.079193,-5.37824 8.482048,-7.66758c-0.248859,-1.30652 -3.289135,-1.94173 -6.652317,-1.81908l0.000469,-0.00005zm0.359581,1.72394c1.69688,-0.119761 2.996719,0.09643 3.394932,0.7932c1.592606,2.58796 -14.442911,8.659891 -16.234222,5.07646c-0.970501,-2.16503 7.74889,-5.510409 12.839058,-5.86972l0.000233,0.000051l0,0.00001z"/>
   <path id="path1843" d="m29.624561,3.278178l-0.459061,-0.46593c0.196228,0.72721 -0.022388,2.025141 -0.41362,2.75034c-0.39122,0.7252 -1.052551,1.4451 -1.914318,2.12578c-1.723473,1.36135 -4.237392,2.560899 -6.906193,3.394929c-2.66868,0.833981 -5.493528,1.3064 -7.83688,1.237391c-2.34334,-0.06901 -4.39707,-0.80595 -5.157169,-2.049749l-0.07374,0.450779c0.88229,1.44383 2.810551,1.951101 5.22032,2.02199c2.40966,0.070961 5.268009,-0.412809 7.9743,-1.25861c2.706409,-0.845739 5.2584,-2.058769 7.043621,-3.46896c0.892651,-0.70511 1.600571,-1.45566 2.03054,-2.25267c0.429977,-0.79705 0.718739,-1.64485 0.491928,-2.48533l0.000271,0.00004z"/>
   <path id="path1886" d="m23.992901,2.685839c-2.673481,-0.021461 -5.27832,0.74935 -7.775951,1.6362c-2.02656,0.781639 -4.092831,1.28378 -5.76932,3.03714c-0.592529,0.446589 -0.99299,1.351151 -0.35878,1.941139c0.952471,1.066961 2.54052,1.063601 3.85688,0.966711c2.969891,-0.319901 5.818399,-1.3692 8.48638,-2.678061c1.383961,-0.73893 2.847462,-1.497129 3.827702,-2.75936c0.491329,-0.55118 0.275398,-1.41148 -0.390793,-1.70016c-0.56646,-0.32423 -1.234119,-0.415359 -1.876129,-0.443629l0.000011,0.00002zm-1.173901,0.4442c1.029819,-0.04865 2.20932,-0.12582 3.072289,0.54066c0.627129,0.6714 -0.418468,1.39052 -0.877708,1.82704c-2.053261,1.56356 -4.461861,2.590301 -6.892481,3.414021c-2.00688,0.61648 -4.126799,1.193819 -6.23958,0.876709c-0.708698,-0.126499 -1.69313,-0.55069 -1.711288,-1.279099c0.088449,-0.72185 0.959829,-1.418751 1.574219,-1.860431c2.61631,-1.578199 5.586321,-2.39606 8.548941,-3.10859c0.832251,-0.188499 1.67462,-0.33962 2.52564,-0.41033l-0.000031,0.00002z"/>
   <path id="path1856" fill="#c8c8c8" d="m16.44153,2.907969c-1.795052,0.6091 -3.04978,1.693489 -2.802591,2.42196l0.804802,1.704841c0.27832,0.704039 1.86418,0.70529 3.637209,0.103719c1.79505,-0.60909 3.049791,-1.69348 2.802588,-2.421949c-0.018539,-0.054641 -0.732737,-1.57457 -0.740328,-1.596951c-0.123589,-0.36423 -1.742569,-0.971009 -3.701639,-0.211519l-0.00004,-0.0001z" stroke="#000"/>
   <path id="path1860" d="m19.953381,2.977678c-0.093681,0.34799 -0.427311,0.78666 -0.920111,1.12534s-1.14122,0.638121 -1.808531,0.86725c-0.667278,0.22912 -1.35162,0.39017 -1.94595,0.454781c-0.594339,0.06459 -1.20155,0.08786 -1.51037,-0.234741l-0.047449,0.415641c0.384741,0.18224 0.967251,0.30037 1.600109,0.23158c0.632902,-0.06879 1.34576,-0.22657 2.041201,-0.465341c0.6954,-0.23879 1.36627,-0.55079 1.90366,-0.920119c0.537411,-0.36935 1.038931,-0.69135 1.089331,-1.31144l-0.40189,-0.16293l0,-0.00002z"/>
   <path id="path1872" fill="url(#linearGradient1873)" d="m13.563381,12.598248c4.606428,-0.205519 9.479038,-1.810049 13.263161,-4.306749c0.010719,0.04745 14.046928,35.921011 14.035217,35.933901c-0.583458,0.813148 -6.720749,4.383369 -12.5989,4.734478c0,0 -14.699478,-36.361519 -14.699478,-36.361519l0,-0.000111z"/>
   <path id="path1878" fill="url(#linearGradient1879)" d="m29.691341,4.225039l3.219898,8.75946c0.301739,2.036749 -2.459209,4.813568 -4.139809,5.704069c-0.398151,-0.995399 -3.809769,-9.359779 -3.809769,-9.359779c1.35783,-0.452621 4.351379,-2.73264 4.729679,-5.10375z"/>
   <path id="path1884" fill="url(#linearGradient1885)" d="m7.29966,11.169418l3.35697,9.203249c1.433281,1.848251 3.658649,2.074471 7.015621,1.885971c0.03772,0.03772 -2.86656,-9.73139 -2.86656,-9.73139c-2.074471,0.33946 -5.959461,0.26403 -7.505911,-1.35783l-0.00012,0z"/>
   <path id="path1891" fill="url(#linearGradient1892)" d="m11.625269,4.432979c-0.872189,0.314 -5.268118,3.48877 -4.640049,5.791459c0.97687,2.58176 7.53578,2.40731 11.059469,1.395561c-2.232868,-0.8722 -7.396259,-1.88397 -6.419409,-7.186901l-0.000011,-0.000119z"/>
   <path id="path1893" fill="url(#linearGradient1895)" d="m15.146381,3.771878s-1.427891,0.521621 -1.323151,1.49853c0.837309,0.69775 4.640059,-0.55821 4.919239,-1.01175c-1.644051,0.3276 -2.938259,0.86284 -3.59597,-0.48673l-0.000118,-0.000051z"/>
   <path id="path1896" fill="url(#linearGradient1897)" d="m14.137201,5.793629s0.348879,1.08153 0.69776,1.39555c1.255909,0.41866 2.232859,-0.03489 2.860819,-0.17443c-2.30258,-0.104671 -2.30258,-1.11642 -3.558599,-1.22111l0.000021,-0.00001z"/>
   <path id="path1898" fill="url(#linearGradient1899)" d="m16.8934,5.479649c0.837309,-0.17445 1.91889,-0.69775 2.51193,-1.15131c0.20933,0.279099 0.732639,1.39555 0.732639,1.39555c-0.244209,0.418659 -1.32572,1.08154 -2.232861,1.25591c-0.17445,-0.209331 -1.011749,-1.500171 -1.011749,-1.500171l0.00004,0.000021z"/>
   <path id="path1869" fill="url(#linearGradient1872)" d="m16.14208,3.291298s2.76124,-0.936009 3.697309,-0.140389c-0.187201,0.56161 -0.46801,0.84242 -0.982809,0.98282c-0.514811,-0.23401 0.187189,-1.26365 -2.7145,-0.84243z"/>
   <path id="path1870" fill="url(#linearGradient1871)" d="m16.563379,2.214889c3.65044,-1.12322 11.74716,-1.73168 12.636374,0.84241c0.514816,2.059239 -1.544464,4.63326 -4.633263,6.13085c2.57402,-3.41648 -2.012383,-7.4881 -8.00288,-6.97331l-0.00024,0.000051l0.00001,0z"/>
   <path id="path1876" d="m23.220852,0.792778c-1.994694,-0.00877 -4.286491,0.333061 -6.641783,1.047031c-3.113989,0.94396 -5.76264,2.36243 -7.551369,3.92377c-1.75662,1.53321 -2.697031,3.223299 -2.33725,4.73811c0.00165,0.00692 -0.001699,0.01424 0,0.021151c0.09263,0.370529 13.58651,35.966709 13.590029,35.979588c0.326111,1.075783 1.31554,1.825161 2.675713,2.263321c1.318466,0.424751 3.018036,0.5569 4.907288,0.433609c1.26598,-0.123508 5.130112,-0.78175 5.637051,-1.036438c2.034519,-0.61673 3.959381,-1.481552 5.485569,-2.410469c0.786552,-0.534431 1.295269,-0.821861 1.8965,-1.41806c0.930309,-0.788792 1.670643,-1.605602 2.11525,-2.432491c0.466591,-0.867771 0.6278,-1.75499 0.380741,-2.56992l-13.615799,-36.302939c-0.394062,-0.72026 -1.403988,-1.41384 -2.523411,-1.73906c-1.119392,-0.32522 -2.5131,-0.49046 -4.018898,-0.49708l0.00037,-0.00013l0,0.00001zm0,0.423041c1.47686,0.00648 2.827656,0.16671 3.892017,0.47592c1.06427,0.30921 1.82082,0.77518 2.125778,1.33252l13.728271,36.434157c0.207741,0.685272 0.081001,1.442413 -0.34901,2.242111c-0.430019,0.799759 -1.157837,1.633381 -2.125778,2.432499c-0.370522,0.216141 -1.24818,0.942341 -1.840279,1.29023c-0.710171,0.401413 -3.267593,1.731213 -5.266842,2.337254c-1.72242,0.472237 -3.413788,0.851837 -5.259689,1.046188c-1.922871,0.14185 -3.757519,-0.0298 -5.041428,-0.443352c-1.283791,-0.413548 -2.116882,-1.086639 -2.390203,-1.988247l-13.590029,-35.895241c-0.35066,-1.296089 0.471289,-2.88027 2.199829,-4.38911c1.72851,-1.50872 4.32819,-2.92068 7.39262,-3.849721c2.318041,-0.702689 4.580311,-1.034439 6.52544,-1.02588l-0.00071,0.00066l0.000011,0.00001z"/>
  </g>
 </g>
</svg>