<?xml version="1.0"?>
<svg width="50" height="50" xmlns="http://www.w3.org/2000/svg" xmlns:svg="http://www.w3.org/2000/svg" xmlns:xlink="http://www.w3.org/1999/xlink">
 <defs>
  <linearGradient x1="0.23944" y1="0.91" x2="0.67254" xlink:href="#linearGradient1864" y2="0.59" id="linearGradient1895"/>
  <linearGradient x1="0.8169" y1="0.029412" x2="0.35211" xlink:href="#linearGradient1864" y2="0.39216" id="linearGradient1872"/>
  <linearGradient x1="0.31338" y1="0.96032" x2="0.86268" xlink:href="#linearGradient1864" y2="0.43077" id="linearGradient1897"/>
  <linearGradient x1="0.93662" y1="-0.073864" x2="0.40141" xlink:href="#linearGradient1864" y2="0.30114" id="linearGradient1871"/>
  <linearGradient x1="0.10246" y1="0.68182" x2="0.77459" xlink:href="#linearGradient1874" y2="0.38384" id="linearGradient1899"/>
  <linearGradient x1="-0.010714" y1="1.0505" x2="0.60357" xlink:href="#linearGradient1864" y2="0.68687" id="linearGradient1892"/>
  <linearGradient id="linearGradient1880">
   <stop offset="0" id="stop1881"/>
   <stop offset="1" stop-opacity="0" id="stop1883"/>
  </linearGradient>
  <linearGradient x1="-0.043011" y1="0.92424" x2="0.60753" xlink:href="#linearGradient1880" y2="0.64646" id="linearGradient1885"/>
  <linearGradient id="linearGradient1874">
   <stop offset="0" stop-opacity="0" stop-color="#fff" id="stop1875"/>
   <stop offset="0.5" stop-opacity="0.247" stop-color="#fff" id="stop1877"/>
   <stop offset="1" stop-opacity="0" stop-color="#fff" id="stop1876"/>
  </linearGradient>
  <linearGradient x1="0.38806" y1="0.65657" x2="0.73134" xlink:href="#linearGradient1874" y2="0.4596" id="linearGradient1873"/>
  <linearGradient x1="1.2273" y1="0.065657" x2="0.56364" xlink:href="#linearGradient1880" y2="0.5404" id="linearGradient1879"/>
  <linearGradient id="linearGradient1864">
   <stop offset="0" stop-color="#fff" id="stop1865"/>
   <stop offset="1" stop-opacity="0" stop-color="#fff" id="stop1866"/>
  </linearGradient>
 </defs>
 <g>
  <title>Layer 1</title>
  <g fill-rule="evenodd" stroke-width="1.25" id="g1905">
   <path d="m23.199759,0.921768c-1.969851,-0.008657 -4.241611,0.328117 -6.578274,1.036451c-6.231026,1.888901 -10.59073,5.727139 -9.72999,8.566632c0,0 13.581825,35.816744 13.585339,35.829634c0.860764,2.839489 6.718393,3.413673 12.949184,1.52478c6.231026,-1.888893 10.590729,-5.727142 9.729988,-8.566639l-13.739983,-36.472819c-0.699009,-1.277689 -3.234306,-1.904943 -6.21685,-1.91795l0.000586,-0.00009z" id="path1195"/>
   <path d="m20.180664,10.486723c-6.231026,1.888893 -11.884243,1.944664 -13.014791,0.205299c0,0 3.229622,8.841015 3.233723,8.854607c0.860752,2.839493 6.419764,3.413673 12.65044,1.524776c6.231028,-1.888889 10.590731,-5.727139 9.729986,-8.566639l-3.525318,-9.586941c-0.201323,2.803413 -2.457687,5.168312 -9.074507,7.568825l0.000467,0.000072z" fill="#eca548" id="path1217"/>
   <path d="m8.37644,9.588491c-1.990822,-5.47467 16.921923,-9.456196 18.91239,-6.868241c2.488499,5.275631 -15.726938,10.053463 -18.91239,6.868241z" fill="#dcdcdc" id="path1842"/>
   <path d="m22.543688,1.101557c-2.017885,0.073612 -4.152689,0.423037 -5.869719,1.05761c-7.067284,2.090286 -10.352669,6.163307 -9.655946,8.154133c1.393564,3.384377 9.614942,1.668526 13.695463,0.274971c6.270977,-2.090282 9.079193,-5.378246 8.482052,-7.66758c-0.248854,-1.306524 -3.289141,-1.941732 -6.652317,-1.819077l0.000467,-0.000057zm0.359585,1.723938c1.696878,-0.119759 2.996716,0.096432 3.394932,0.793205c1.592606,2.587956 -14.442919,8.65989 -16.234224,5.076455c-0.970505,-2.165028 7.74889,-5.510403 12.839058,-5.869717l0.000235,0.000057z" fill="#eca548" id="path1839"/>
   <path d="m29.624559,3.163923l-0.459061,-0.465935c0.196236,0.727215 -0.022392,2.025147 -0.413618,2.75034c-0.391216,0.725204 -1.052547,1.445107 -1.91432,2.125778c-1.723471,1.361351 -4.237392,2.560905 -6.906191,3.394932c-2.668682,0.833981 -5.493534,1.3064 -7.836876,1.237392c-2.343342,-0.069008 -4.397075,-0.80595 -5.157178,-2.049747l-0.073739,0.450775c0.882298,1.443829 2.810556,1.951107 5.220327,2.021988c2.409652,0.070969 5.268007,-0.412807 7.9743,-1.258602c2.706402,-0.845745 5.258396,-2.058769 7.043612,-3.468967c0.892658,-0.705105 1.600578,-1.455658 2.03054,-2.252666c0.429983,-0.797054 0.718744,-1.644855 0.491934,-2.485329l0.000269,0.000042z" id="path1843"/>
   <path d="m23.992901,2.571584c-2.673485,-0.021465 -5.278318,0.749348 -7.775951,1.636193c-2.026556,0.781647 -4.092827,1.283787 -5.769318,3.03714c-0.592527,0.446598 -0.992987,1.351151 -0.358778,1.941143c0.952463,1.066963 2.540516,1.063595 3.856873,0.966713c2.969889,-0.319901 5.818403,-1.369202 8.486383,-2.678059c1.383957,-0.738934 2.847464,-1.497131 3.827703,-2.759362c0.491323,-0.551182 0.275393,-1.411484 -0.390795,-1.700157c-0.566463,-0.324238 -1.234119,-0.415363 -1.876129,-0.443638l0.000011,0.000027zm-1.173899,0.444199c1.029821,-0.048656 2.209316,-0.12582 3.072285,0.540657c0.627134,0.671398 -0.418467,1.390518 -0.877705,1.827042c-2.053265,1.563553 -4.461861,2.590302 -6.892485,3.414021c-2.006872,0.616474 -4.126799,1.193817 -6.239579,0.876709c-0.708695,-0.126503 -1.69313,-0.550697 -1.711287,-1.279099c0.088446,-0.721852 0.959829,-1.418758 1.574216,-1.860428c2.616313,-1.578205 5.58632,-2.396064 8.548944,-3.1086c0.832249,-0.188492 1.67462,-0.339611 2.525639,-0.410328l-0.000027,0.000027z" id="path1886"/>
   <path stroke="#000" d="m16.441534,2.793714c-1.795055,0.609093 -3.049789,1.693482 -2.802593,2.421952l0.804799,1.704845c0.278315,0.704044 1.864177,0.705288 3.637208,0.103718c1.795053,-0.609089 3.049788,-1.693481 2.802591,-2.421951c-0.018539,-0.054642 -0.732738,-1.57457 -0.740332,-1.596951c-0.123587,-0.364223 -1.742567,-0.971004 -3.701639,-0.211521l-0.000034,-0.000092z" fill="#c8c8c8" id="path1856"/>
   <path d="m19.953382,2.863417c-0.093683,0.347988 -0.427313,0.786667 -0.920115,1.125347s-1.141222,0.638115 -1.808529,0.867245c-0.667282,0.229122 -1.351622,0.390167 -1.945951,0.454777c-0.59434,0.064598 -1.201545,0.087864 -1.510366,-0.234734l-0.047449,0.415634c0.38474,0.182247 0.967247,0.300373 1.60011,0.231583c0.632896,-0.068794 1.345762,-0.226574 2.041197,-0.46534c0.6954,-0.238785 1.366268,-0.550789 1.903658,-0.920116c0.537415,-0.369351 1.038937,-0.691353 1.089334,-1.311444l-0.40189,-0.16293l0,-0.000023z" id="path1860"/>
   <path d="m13.563375,12.483988c4.606432,-0.205513 9.479044,-1.810047 13.263165,-4.306751c0.010723,0.047455 14.04693,35.921011 14.035215,35.933897c-0.583458,0.813152 -6.720741,4.383373 -12.598896,4.734486c0,0 -14.699484,-36.361517 -14.699484,-36.361517l0,-0.000114z" fill="url(#linearGradient1873)" id="path1872"/>
   <path d="m29.691338,4.110776l3.219902,8.759469c0.301739,2.036747 -2.459209,4.813564 -4.139805,5.704063c-0.398151,-0.995396 -3.809776,-9.359776 -3.809776,-9.359776c1.357832,-0.452625 4.351385,-2.732647 4.729679,-5.103756z" fill="url(#linearGradient1879)" id="path1878"/>
   <path d="m7.299664,11.055162l3.356969,9.203251c1.43328,1.848248 3.658647,2.074471 7.015617,1.885971c0.037718,0.03772 -2.866559,-9.731396 -2.866559,-9.731396c-2.074471,0.339466 -5.95946,0.26403 -7.50591,-1.357826l-0.000118,0z" fill="url(#linearGradient1885)" id="path1884"/>
   <path d="m11.625275,4.318724c-0.872196,0.313995 -5.268126,3.48877 -4.640054,5.791458c0.976865,2.58176 7.535783,2.40731 11.059469,1.395557c-2.232867,-0.872196 -7.396257,-1.883972 -6.419412,-7.186901l-0.000003,-0.000114z" fill="url(#linearGradient1892)" id="path1891"/>
   <path d="m15.14638,3.657617s-1.42789,0.521622 -1.323153,1.498532c0.83731,0.697754 4.640059,-0.558213 4.919239,-1.011753c-1.644043,0.327599 -2.938259,0.862839 -3.595968,-0.486729l-0.000117,-0.00005z" fill="url(#linearGradient1895)" id="path1893"/>
   <path d="m14.137204,5.679365s0.348875,1.081535 0.697755,1.395557c1.255907,0.418655 2.232864,-0.034889 2.860817,-0.174431c-2.302572,-0.104668 -2.302572,-1.116421 -3.558597,-1.221111l0.000025,-0.000015z" fill="url(#linearGradient1897)" id="path1896"/>
   <path d="m16.893402,5.365393c0.837309,-0.17445 1.918888,-0.697754 2.511929,-1.15131c0.209333,0.279099 0.732643,1.39555 0.732643,1.39555c-0.244211,0.418655 -1.325729,1.081535 -2.232866,1.255909c-0.174444,-0.209332 -1.011753,-1.500175 -1.011753,-1.500175l0.000048,0.000027z" fill="url(#linearGradient1899)" id="path1898"/>
   <path d="m16.142084,3.177042s2.761234,-0.936008 3.697308,-0.140396c-0.187204,0.561611 -0.468014,0.842419 -0.982817,0.982819c-0.514803,-0.234009 0.187199,-1.263645 -2.714491,-0.842423z" fill="url(#linearGradient1872)" id="path1869"/>
   <path d="m16.563375,2.100626c3.650446,-1.12322 11.747168,-1.731674 12.636379,0.842411c0.514814,2.059246 -1.544462,4.633266 -4.633261,6.130856c2.574018,-3.416481 -2.012379,-7.488098 -8.002884,-6.973316l-0.000235,0.00005z" fill="url(#linearGradient1871)" id="path1870"/>
   <path d="m23.220846,0.678518c-1.994688,-0.008764 -4.286482,0.333061 -6.641773,1.047031c-3.113991,0.943958 -5.762638,2.362434 -7.551369,3.923767c-1.756626,1.533211 -2.697032,3.223301 -2.337249,4.738113c0.001644,0.006924 -0.0017,0.014236 0,0.021152c0.09263,0.370525 13.586509,35.966707 13.590024,35.979593c0.326113,1.075775 1.315538,1.825157 2.675713,2.263321c1.318466,0.424744 3.01804,0.556892 4.907286,0.433609c1.265982,-0.123508 5.130117,-0.78175 5.637053,-1.036438c2.034515,-0.616737 3.959377,-1.481552 5.485565,-2.410477c0.786556,-0.534431 1.295269,-0.821861 1.896507,-1.418053c0.930309,-0.788795 1.670639,-1.605606 2.115246,-2.432499c0.466595,-0.867764 0.6278,-1.754986 0.380737,-2.569912l-13.615795,-36.302939c-0.394062,-0.720268 -1.403988,-1.413839 -2.523409,-1.739059c-1.119394,-0.325222 -2.513102,-0.490461 -4.0189,-0.49708l0.000364,-0.000132zm0,0.423038c1.476862,0.006485 2.827663,0.166716 3.892021,0.47592c1.06427,0.30921 1.820827,0.775179 2.125782,1.332525l13.72827,36.434153c0.207737,0.685272 0.081001,1.442413 -0.349007,2.242115c-0.430019,0.799759 -1.157837,1.633381 -2.125786,2.432499c-0.370514,0.216137 -1.248173,0.942341 -1.840275,1.290234c-0.710175,0.401402 -3.267586,1.731205 -5.266838,2.337246c-1.722422,0.472237 -3.413794,0.851837 -5.259693,1.046192c-1.922871,0.141853 -3.757524,-0.0298 -5.041431,-0.443356c-1.283785,-0.413544 -2.116879,-1.086632 -2.390202,-1.988243l-13.590027,-35.895239c-0.350657,-1.296089 0.471294,-2.880268 2.199829,-4.389107c1.72851,-1.508724 4.328187,-2.920689 7.39262,-3.849728c2.318037,-0.702688 4.580309,-1.034439 6.525438,-1.025881l-0.000702,0.000669z" id="path1876"/>
  </g>
 </g>
</svg>