<?xml version="1.0"?>
<svg width="80" height="250" xmlns="http://www.w3.org/2000/svg" xmlns:svg="http://www.w3.org/2000/svg">
 <!-- Created with SVG-edit - http://svg-edit.googlecode.com/ -->
 <g>
  <title>Layer 1</title>
  <path id="svg_21" fill="black" fill-rule="evenodd" d="m6.616852,113.900513l0,-99.936998c0,-3.707991 2.988037,-6.696001 6.696045,-6.696001l52.198944,0c3.708069,0 6.732056,2.98801 6.732056,6.696001l0,99.936998l-0.036072,13.067986c0.072083,0.504005 0,1.043007 -0.216003,1.764015c-0.216003,0.64801 -0.684937,1.474991 -1.259949,2.339996c-1.224976,0.899994 -1.800964,1.907959 -1.871948,2.627029c-0.072083,0.827927 0.431946,1.368973 1.511902,2.017929c0.68396,0.611023 1.116089,1.150055 1.440063,2.016068c0.286987,0.827988 0.468018,1.583969 0.395935,2.663971l0.036072,0c0,3.707031 -3.023987,6.729996 -6.732056,6.729996l-52.198944,0c-3.708008,0 -6.696045,-3.022964 -6.696045,-6.729996c-0.108032,-1.080002 0.072021,-1.835983 0.395996,-2.663971c0.288025,-0.865036 0.721008,-1.404022 1.440002,-2.016068c1.080017,-0.647949 1.584045,-1.18895 1.512024,-2.017929c-0.072021,-0.71907 -0.756042,-1.727036 -1.90802,-2.627029c-0.539978,-0.865005 -1.044006,-1.69101 -1.223999,-2.339996c-0.252014,-0.721008 -0.324036,-1.26001 -0.216003,-1.764015l0,-13.067986z"/>
  <path id="svg_22" fill-rule="evenodd" fill="#404040" d="m53.48877,147.127502l13.212036,0c3.708008,0 6.730957,-3.022964 6.730957,-6.729996l-0.034912,0c0,-1.080002 -0.14502,-1.835983 -0.432983,-2.663971c-0.287964,-0.865005 -0.864014,-1.404007 -1.439026,-2.016006c-1.116028,-0.64801 -1.619934,-1.189011 -1.512939,-2.01799c0.03595,-0.719009 0.720886,-1.727005 1.907898,-2.626999c0.57605,-0.865036 1.044067,-1.69101 1.26001,-2.339996c0.217041,-0.721008 0.288086,-1.26001 0.217041,-1.764015l0.034912,-13.067986l0,-99.936999c0,-3.708011 -3.022949,-6.696001 -6.730957,-6.696001l-13.212036,0l0,139.859959z"/>
  <path id="svg_23" fill-rule="evenodd" fill="#212121" d="m49.168823,7.340514l10.1521,0l0,139.751955l-10.1521,0l0,-139.751955z"/>
  <path id="svg_24" fill-rule="evenodd" fill="#999e9e" d="m20.116821,7.268524l22.824097,0l0,139.824021l-22.824097,0l0,-139.824021z"/>
  <path id="svg_25" stroke-width="0.036" stroke-miterlimit="10" stroke="#000" fill-rule="evenodd" d="m20.116821,23.612514l11.411987,8.855999l11.412109,-9.03599l0,5.543989l-11.412109,9.036011l-11.411987,-8.855999l0,-5.54401z"/>
  <path id="svg_26" stroke-width="0.036" stroke-miterlimit="10" stroke="#000" fill-rule="evenodd" d="m20.116821,50.469524l11.411987,8.855l11.412109,-9.036991l0,5.509991l-11.412109,9.070015l-11.411987,-8.891014l0,-5.507z"/>
  <path id="svg_27" stroke-width="0.036" stroke-miterlimit="10" stroke="#000" fill-rule="evenodd" d="m20.116821,77.324516l11.411987,8.855011l11.412109,-9.035019l0,5.508011l-11.412109,9.035004l-11.411987,-8.855011l0,-5.507996z"/>
  <path id="svg_28" stroke-width="0.036" stroke-miterlimit="10" stroke="#000" fill-rule="evenodd" d="m20.116821,104.144524l11.411987,8.890984l11.412109,-9.069969l0,5.542999l-11.412109,9.034973l-11.411987,-8.85498l0,-5.544006z"/>
  <path id="svg_29" fill-rule="evenodd" fill="#808080" d="m20.729858,147.16449l0,98.567993l3.814941,-5.688965l0,-92.879028l-3.814941,0z"/>
  <path id="svg_30" fill-rule="evenodd" fill="#808080" d="m55.432861,146.408508l0,98.568008l3.81604,-5.724991l0,-92.844055l-3.81604,0l0,0.001038z"/>
 </g>
</svg>