<?xml version="1.0"?>
<svg width="16" height="50" xmlns="http://www.w3.org/2000/svg" xmlns:svg="http://www.w3.org/2000/svg">
 <g>
  <title>Layer 1</title>
  <path d="m1.159911,22.4l0,-20.3c0,-0.8 0.6,-1.4 1.4,-1.4l10.6,0c0.799999,0 1.400002,0.6 1.400002,1.4l0,20.3l0,2.699999c0,0.1 0,0.200001 0,0.4c0,0.1 -0.1,0.300001 -0.300001,0.5c-0.200001,0.200001 -0.4,0.400002 -0.4,0.5c0,0.200001 0.099998,0.300001 0.299999,0.400002c0.1,0.099998 0.200003,0.199999 0.300001,0.4c0.1,0.199999 0.1,0.299999 0.1,0.5l0,0c0,0.799999 -0.600002,1.4 -1.400002,1.4l-10.6,0c-0.799999,0 -1.4,-0.6 -1.4,-1.4c0,-0.200001 0,-0.4 0.1,-0.5c0.1,-0.200001 0.1,-0.300001 0.299999,-0.4c0.200001,-0.1 0.300001,-0.200001 0.300001,-0.400002c0,-0.099998 -0.200001,-0.4 -0.400002,-0.5c-0.099998,-0.199999 -0.199999,-0.299999 -0.199999,-0.5c-0.1,-0.099998 -0.1,-0.299999 0,-0.4c-0.1,0.000002 -0.1,-2.699999 -0.1,-2.699999z" fill="#030104" id="svg_21"/>
  <path d="m10.759912,29.200001l2.7,0c0.799999,0 1.4,-0.6 1.4,-1.4l0,0c0,-0.200001 0,-0.4 -0.099998,-0.5c-0.1,-0.200001 -0.200001,-0.299999 -0.300001,-0.4c-0.200001,-0.1 -0.300001,-0.200001 -0.300001,-0.4c0,-0.1 0.1,-0.400002 0.400002,-0.5c0.1,-0.200001 0.200001,-0.300001 0.299999,-0.5c0,-0.1 0.099998,-0.300001 0,-0.400002l0,-2.699999l0,-20.300002c0,-0.8 -0.6,-1.4 -1.4,-1.4l-2.7,0l0,28.500001z" fill="#404040" id="svg_22"/>
  <path d="m9.859912,0.8l2.1,0l0,28.400001l-2.1,0c0,0 0,-28.400001 0,-28.400001z" fill="#202020" id="svg_23"/>
  <path d="m3.95991,0.7l4.600001,0l0,28.4l-4.600001,0l0,-28.4z" fill="#999D9E" id="svg_24"/>
  <path d="m3.95991,4.1l2.299999,1.8l2.300001,-1.9l0,1.1l-2.299999,1.9l-2.300001,-1.8l0,-1.1z" stroke-miterlimit="10" stroke-width="0.036" stroke="#030104" fill="#030104" id="svg_25"/>
  <path d="m3.95991,9.5l2.299999,1.8l2.300001,-1.8l0,1.1l-2.300001,1.799999l-2.299999,-1.799999l0,-1.1z" stroke-miterlimit="10" stroke-width="0.036" stroke="#030104" fill="#030104" id="svg_26"/>
  <path d="m3.95991,15l2.299999,1.799999l2.300001,-1.799999l0,1.1l-2.300001,1.799999l-2.299999,-1.799999l0,-1.1z" stroke-miterlimit="10" stroke-width="0.036" stroke="#030104" fill="#030104" id="svg_27"/>
  <path d="m3.95991,20.5l2.299999,1.799999l2.300001,-1.799999l0,1.1l-2.300001,1.799999l-2.299999,-1.799999l0,-1.1z" stroke-miterlimit="10" stroke-width="0.036" stroke="#030104" fill="#030104" id="svg_28"/>
  <path d="m4.059911,29.200001l0,20l0.800001,-1.200001l0,-18.799999l-0.800001,0z" fill="#818080" id="svg_29"/>
  <path d="m11.159911,29l0,20l0.799999,-1.200001l0,-18.799999l-0.799999,0l0,0z" fill="#818080" id="svg_30"/>
 </g>
</svg>