<?xml version="1.0" encoding="utf8" standalone="no"?>
<svg viewBox="0 0 48 48" xmlns="http://www.w3.org/2000/svg">
<defs>
<filter height="2.67709" id="filter3416" width="1.44585" x="-.22293" y="-.83855">
<feGaussianBlur stdDeviation="2.8388"/>
</filter>
<linearGradient gradientUnits="userSpaceOnUse" id="linearGradient3192" x1="12.29246" x2="34.46837" y1="2.80429" y2="31.32926">
<stop offset="0" stop-color="#4380ea"/>
<stop offset="1" stop-color="#82bfe9"/>
</linearGradient>
<linearGradient gradientUnits="userSpaceOnUse" id="linearGradient3246" x1="10.83501" x2="58.57567" y1="2.95372" y2="38.50468">
<stop offset="0" stop-color="#fff"/>
<stop offset="1" stop-color="#9bc7f0" stop-opacity="0"/>
</linearGradient>
<linearGradient gradientUnits="userSpaceOnUse" id="linearGradient3283" x2="0" y1="18.03554" y2="24.12458">
<stop offset="0" stop-color="#f3f3f3"/>
<stop offset="1" stop-color="#626262"/>
</linearGradient>
<linearGradient gradientUnits="userSpaceOnUse" id="linearGradient3315" spreadMethod="reflect" x1="23.06752" x2="24.81583">
<stop offset="0" stop-color="#fff"/>
<stop offset="1" stop-color="#fff" stop-opacity="0"/>
</linearGradient>
<linearGradient gradientUnits="userSpaceOnUse" id="linearGradient3354" spreadMethod="reflect" x1="22.12594" x2="30.34935">
<stop offset="0" stop-color="#fffff6"/>
<stop offset="1" stop-color="#ffd814"/>
</linearGradient>
<radialGradient cx="25.44938" cy="21.6584" gradientTransform="matrix(.85468,0,0,1.08741,2.24997,-4.07254)" gradientUnits="userSpaceOnUse" id="radialGradient3236" r="14.53572">
<stop offset="0" stop-color="#fbecb3" stop-opacity=".7843"/>
<stop offset="1" stop-color="#9bc7f0" stop-opacity=".7843"/>
</radialGradient>
</defs>
<path d="m38.75,41.0625a15.28125,4.0625 0 1,1 -.08068-.41692" fill="#2f2f2f" fill-opacity=".4592" filter="url(#filter3416)" transform="matrix(.80652,0,0,.65594,4.39107,15.79276)"/>
<path d="m26.20715,43.09445a2.23181,1.23744 0 1,1 -.05892-.28246l-2.17289.28246z" fill="#2f2f2f" transform="matrix(1.11881,0,0,1,-3.49944,-2.06954)"/>
<path d="m18.07606,30.00814c3.43428-1.85176 7.42403-1.72773 10.61009-.0443 0,0 .94301,4.06051-1.4789,4.20796 2.55182.97115 1.68331,2.97431.11599,3.32072 5.65072,5.07873-14.56022,4.28961-7.68129-.84584-2.08785-.78319-2.35432-2.07255.20299-3.32072-2.55182-.3446-1.76888-3.31781-1.76888-3.31781z" fill="none" stroke="#e9b636" stroke-linecap="round" stroke-linejoin="round" stroke-width=".869"/>
<path d="m18.42404,30.29009c3.37178-1.69551 6.30621-1.60281 9.91414-.07563 0,0 .89177,4.08646-1.53014,4.23391 2.55182.97115 1.58267,2.30058.08699,3.16408 5.49042,4.39827-13.57982,3.51125-6.79362-.76756-2.43358-1.80021-2.04857-1.88466.18511-3.4304-2.55182-.3446-1.86249-3.1244-1.86249-3.1244z" fill="url(#linearGradient3354)"/>
<path d="m20.5387,33.44307c1.75666,1.07411 4.69143,1.56479 6.01322.95548 0,0-2.24532-.10305-3.05425-.22363-.95693-.14097-2.95897-.73185-2.95897-.73185z" fill="#e9b636" fill-rule="evenodd"/>
<path d="m20.24252,36.8588c1.75666,1.07411 4.72202,1.52725 6.30187.68993 0,0-1.84646.07303-2.87155-.04467-1.06752-.10047-3.43033-.64526-3.43033-.64526z" fill="#e9b636" fill-rule="evenodd"/>
<path d="m33.35534,20.92141c-2.43628,2.91191-3.70208,4.90967-3.83671,7.29417-.09959,1.76388-.99994,3.24742-2.05037,3.69904-1.79347.7711-5.86446.86101-8.01738.00627-.82341-.32691-1.87733-1.59331-2.23139-3.72396-.48789-2.93601-1.24282-4.99423-3.1934-7.11652-1.62117-2.1561-2.37464-4.59842-2.37464-7.18282 0-6.62182 5.37423-11.99605 11.99605-11.99605s11.99605,5.37423 11.99605,11.99605c0,2.51432-.9644,5.08336-2.28822,7.02382z" fill="url(#radialGradient3236)" fill-rule="evenodd" stroke="url(#linearGradient3192)"/>
<path d="m32.42373,20.38558c-2.1293,2.80402-3.72387,4.7143-3.80613,6.9686-.0647,1.77301-.65552,3.14363-1.51083,3.58398-1.6053.82647-5.95481.64045-7.29396.01484-.74358-.34738-1.44157-1.6006-1.79747-3.88201-.43304-2.77585-1.37725-4.5759-3.16758-6.58062-1.48798-2.03666-2.18356-4.23577-2.18356-6.677 0-6.25499 4.96798-10.86783 10.88955-10.89908 6.07774-.03191 11.07705,4.86684 11.07705,11.12183 0,2.37503-.99201,4.5165-2.20707,6.34946z" fill="none" opacity=".75" stroke="url(#linearGradient3246)"/>
<path d="m25.37251,23.99713 2.06683-6.2129-1.61023.27678-1.03599-.70113-1.27705.6717-1.02752-.60799-1.29268.55275-1.53261-.29419 2.08314,6.30146" fill="none" stroke="url(#linearGradient3283)" stroke-linecap="round" stroke-linejoin="round"/>
<path d="m20.93533,31.26312v-6.35374c1.45772-1.43818 4.04434-1.23467 5.13938.16808v6.19437" fill="url(#linearGradient3315)" fill-rule="evenodd" opacity=".5167" stroke="#bebebe" stroke-linecap="round" stroke-linejoin="round" stroke-opacity=".9356"/>
<path d="m26.03661,8.57336c0,2.61399-5.6205,7.19549-8.15625,7.19549s-2.29197-1.90278-2.29197-4.51678 2.82317-5.08776 5.35892-5.08776 5.08931-.20494 5.08931,2.40905z" fill="#fff" fill-opacity=".3991" opacity=".5167"/>
</svg>
