<?xml version="1.0" encoding="utf-8"?>
<!-- Generator: Adobe Illustrator 18.0.0, SVG Export Plug-In . SVG Version: 6.00 Build 0)  -->
<!DOCTYPE svg PUBLIC "-//W3C//DTD SVG 1.1//EN" "http://www.w3.org/Graphics/SVG/1.1/DTD/svg11.dtd">
<svg version="1.1" id="Capa_1" xmlns="http://www.w3.org/2000/svg" xmlns:xlink="http://www.w3.org/1999/xlink" x="0px" y="0px"
	 viewBox="0 0 50 50" enable-background="new 0 0 50 50" xml:space="preserve">
<g id="layer3">
	<path id="path2169" fill="#B3B3B3" stroke="#666566" stroke-width="0.731" d="M30.2,35.5c0,0,0.3,0.1,0.8-0.2
		c0.6-0.4,1.5-2,1.5-2.4c0.1-1.9,0.3-3.8,0.9-5.1c1.2-2.9,5.2-7.3,5.2-13.8c0-6-5.9-13-12.9-13c-11.3-0.1-14.4,9.2-14.6,13.7
		c-0.1,3.4,1.8,7.2,4.5,11.7c2.6,4.5,1.3,5,2.1,7c0.6,1.4,1.3,2,1.3,2L30.2,35.5L30.2,35.5z"/>
	<g id="path2170">
		<path fill="#FFFFFF" d="M30.7,35.4c0.6-0.4,1.4-2.6,1.4-3.1c0-1.8,0.3-3.7,0.8-4.9c1.1-2.8,4.9-7,4.9-13.3
			c0-5.8-5.6-12.5-12.2-12.5C15,1.6,12,10.5,11.9,14.8c-0.1,3.3,1.7,6.9,4.2,11.2c2.5,4.3,1.2,4.8,2,6.7c0.5,1.4,1.2,2.5,1.2,2.5
			S30.2,35.7,30.7,35.4L30.7,35.4z"/>
	</g>
</g>
<g id="layer6">
	
		<linearGradient id="path3312_1_" gradientUnits="userSpaceOnUse" x1="-0.2803" y1="71.719" x2="-0.2803" y2="71.6847" gradientTransform="matrix(175.074 0 0 -49.6803 74.156 3608.9102)">
		<stop  offset="0" style="stop-color:#050306"/>
		<stop  offset="0.9344" style="stop-color:#050306"/>
		<stop  offset="0.9687" style="stop-color:#9E9C9A"/>
		<stop  offset="1" style="stop-color:#B29F82"/>
	</linearGradient>
	<path id="path3312" fill="url(#path3312_1_)" stroke="#030104" stroke-width="0.731" d="M21.4,46c0,0,0.6,0.7,0.9,1
		c0.3,0.3,0.1,0.3,0.8,0.5c0.7,0.2,1.1,0.3,1.9,0.3c0.8,0,0.9-0.2,1.4-0.3c0.5-0.1,0.7-0.2,0.7-0.2l1.6-1.6L21.4,46L21.4,46z"/>
	
		<linearGradient id="path2167_1_" gradientUnits="userSpaceOnUse" x1="0.4282" y1="53.9808" x2="0.4698" y2="53.9808" gradientTransform="matrix(293.7742 0 0 -261.92 -106.9464 14179.252)">
		<stop  offset="0" style="stop-color:#7F7D7E"/>
		<stop  offset="0.7965" style="stop-color:#7F7D7E"/>
		<stop  offset="1" style="stop-color:#515050"/>
	</linearGradient>
	<path id="path2167" fill="url(#path2167_1_)" d="M31.1,35.4c0,0-0.1,0.1-0.4,0.2c-0.1,0-0.1,0.5-0.1,0.8c0,0.3,0.3,0.4,0.3,0.9
		c0,0.4-0.4,0.3-0.5,0.5c-0.1,0.3,0,0.5,0,0.5s0.4,0.2,0.4,0.5c0,0.3-0.4,0.4-0.5,0.6c-0.1,0.2,0.1,0.7,0.1,0.7s0.4,0,0.4,0.4
		c0,0.4-0.5,0.4-0.5,0.6c0,0.2-0.1,0.5,0.3,0.6c0.1,0,0.3,0.1,0.1,0.5c-0.1,0.3-0.5,0.3-0.5,0.6c0,0.3,0,0.4,0.2,0.5
		c0.2,0.1,0.4,0.3,0.1,0.6c-0.3,0.3-1.6,1.7-2,1.8C27.9,46,26.2,46,25,46c-1.2,0-3.1,0.1-3.8-0.1c-0.2,0-1.5-1.3-1.7-1.6
		c-0.2-0.4,0-0.6-0.1-0.9c0-0.2-0.1-0.1-0.3-0.2c-0.4-0.3,0-0.7,0.1-0.7c0.2-0.1,0.3-0.6,0-0.8c-0.3-0.3-0.4-0.5-0.2-0.7
		c0.5-0.5,0.3-0.7,0.1-1c-0.2-0.3-0.2-0.4-0.1-0.6c0.1-0.2,0.4,0,0.3-0.6c-0.1-0.6-0.1-0.2-0.3-0.6c-0.1-0.3,0.1-1.9,0.1-1.9
		L19,36.1L19,35.5l-0.1-0.1c0,0,5.9-0.3,6.7-0.2C26.4,35.2,31.1,35.4,31.1,35.4L31.1,35.4z"/>
	<g>
		<g id="path3175">
			<path fill="#64635F" d="M23.8,35.5c0,0-0.2,0-0.2,0.3c0,0.3,0.1,0.6,0.1,0.6s-0.3-0.4-0.1,0.2c0.1,0.6,0.2,0.6,0,0.7
				c-0.2,0.1,0.5,0.6,0.5,0.6s-3.6,0.4-4.1,0.4c-0.5,0,3.7,0.2,4.1,0.2c0.3,0-0.1,0.1-0.2,0.2c-0.1,0.1,1,0.2,1.6,0.1
				c0.7-0.1,0.3-0.3-0.1-0.3c-0.4,0,0.5,0,1.2-0.1c0.7-0.1-0.6-0.3-1-0.4s-1-0.2-0.3-0.2s1,0.1,1-0.1c0-0.2,0.1-1,0-1.1
				c-0.1-0.1,0.2,0,0-0.3c-0.2-0.3-0.9-0.3-0.9-0.3s0.8-0.2,1.4-0.3C27.4,35.6,23.8,35.6,23.8,35.5L23.8,35.5z"/>
		</g>
		<g id="path3177">
			<path fill="#64635F" d="M19.8,39.2c0,0,1.7,0.1,2.9,0c1.2-0.1,1.9-0.2,2.7-0.1c0.9,0.1,0.8,0,1.6,0c0.8-0.1,0.1-0.3-0.9-0.2
				c-1,0.1-2-0.1-2.7,0.1C22.6,39,21.8,39,21.3,39C20.8,39,19.8,39.2,19.8,39.2L19.8,39.2z"/>
		</g>
		<g id="path3179">
			<path fill="#64635F" d="M20.1,40c0.1,0,1.6-0.2,2.6-0.2c1,0,1.6-0.3,2.5-0.2c0.9,0.1,1.2,0.1,1.8,0.2c0.7,0.1,0.3,0-0.4,0.1
				C26,40,25,40.2,25.3,40.2c0.3,0,1.2,0,0.8,0.1c-0.5,0.1-0.7,0.3-1.6,0.3s-2.2-0.1-1.3-0.2s2.6-0.1,1.6-0.2
				c-1-0.1-2.2-0.1-2.8-0.1C21.3,40.1,20.1,40.1,20.1,40L20.1,40z"/>
		</g>
		<g id="path3181">
			<path fill="#64635F" d="M20.6,41.6c0,0,1.9,0,2.6-0.1c0.7-0.1,0.8-0.3,1.6-0.3c0.8,0,1.6-0.1,2.1,0c0.5,0.1,0.9,0.1,0,0.1
				c-0.8,0.1-1.6,0.1-1.4,0.2c0.1,0.1,0.8,0.2,0.7,0.3C26,42.2,26,42.2,25,42.2c-1,0-2.7,0.2-1.9,0c0.8-0.2,2.7-0.3,1.3-0.3
				S20.8,41.7,20.6,41.6L20.6,41.6z"/>
		</g>
		<g id="path3183">
			<path fill="#64635F" d="M20.2,43.2c0.2,0,2.2,0,2.7,0c0.5,0,0.8-0.3,1.7-0.3s1,0,1.7,0.1c0.7,0.1,1.3,0.1,1.5,0.1
				c0.2,0,0-0.1-0.9,0.1c-0.3,0.1-0.4,0.4-0.3,0.7c0,0.1,0.2,0.1,0.3,0.2c0.1,0.1,0.3,0.3,0.3,0.4c0.3,0.6-0.5,1.4-1.1,1.4
				c-1.1,0-1.8,0-2.6,0c-0.1,0-1-0.7-0.7-1.3c0.1-0.2,0.2-0.4,0.3-0.5c0.1-0.1,0.1-0.1,0.2-0.2c0.1-0.3,0-0.5-0.1-0.5
				C22.3,43.3,20.2,43.3,20.2,43.2L20.2,43.2z"/>
		</g>
	</g>
	<g>
		<g id="path3186">
			<path fill="#F3F0EC" d="M25.2,35.8c0.8,0,2.1-0.3,2.7-0.1c0.7,0.2,0.8-0.1,0.9,0.1c0.1,0.2,0,0.5-0.1,0.5
				c-0.1,0.1,0.2,0.6,0.2,0.9c0,0.4-1.3,0.6-2.4,0.6c-1.1,0-1.3-0.1-0.6-0.3c0.7-0.2,0.8-0.4,0.7-0.7c0-0.3-0.3-0.4-0.3-0.5
				c0-0.1,0.4,0,0.2-0.3S25.2,35.8,25.2,35.8L25.2,35.8z"/>
		</g>
		<g id="path3188">
			<path fill="#F3F0EC" d="M25.6,38.4c0,0,1.2-0.1,2,0c0.8,0.1,1.8,0,0.6,0.3C27,38.9,25.9,39,25.1,39c-0.8,0-0.5,0,0.4-0.2
				c0.9-0.2,0.5-0.3,0.2-0.3C25.4,38.4,25.6,38.4,25.6,38.4L25.6,38.4z"/>
		</g>
	</g>
	<g id="path3190">
		<path fill="#5B5A58" d="M25.4,40c0,0,1.1-0.1,2.2,0c1.1,0.2,2.3,0.2,0.2,0.4c-2.1,0.1-3.4,0.3-3.4,0.3s0.9,0,1.6-0.3
			S25.4,40.1,25.4,40L25.4,40z"/>
	</g>
	<g id="path3192">
		<path fill="#F3F0EC" d="M25.6,41.8c0,0,0.9-0.1,2-0.1c1.1,0,3.3-0.1,1.5,0.2c-1.8,0.3-2.9,0.4-3.5,0.5c-0.6,0.1-0.3,0,0.4-0.2
			C26.6,41.8,25.6,41.8,25.6,41.8L25.6,41.8z"/>
	</g>
	<g>
		<g id="path3205">
			<path fill="#928A85" d="M19.3,38.2c0,0,1.3,0,3.1,0.1c1.7,0.1,4.3,0.2,2,0.4c-2.3,0.2-4.9,0.4-4.9,0.4L19.3,38.2L19.3,38.2z"/>
		</g>
		<g id="path3207">
			<path fill="#928A85" d="M19.2,40.1c0.2,0,1.6-0.2,3.4,0c1.8,0.2,2.9,0.4,1,0.4c-1.9,0.1-4.2,0.4-4.2,0.4L19.2,40.1L19.2,40.1z"/>
		</g>
		<g id="path3209">
			<path fill="#928A85" d="M19.3,41.7c0,0,1.1,0.4,2.8,0.2c1.7-0.1,2.8-0.1,2.6,0c-0.2,0-1,0.6-2.5,0.6c-1.5,0-2.9,0-2.9,0
				L19.3,41.7L19.3,41.7z"/>
		</g>
	</g>
	<g>
		<g id="path3274">
			<path fill="#F3F0EC" d="M26.1,39.1c0.3,0,1.3-0.3,2.2-0.2c0.9,0.1-0.1,0.5-1.2,0.5C26.1,39.5,26.1,39.2,26.1,39.1z"/>
		</g>
		<g id="path3276">
			<path fill="#F3F0EC" d="M25.9,41c0.3,0,0.7-0.1,1.6-0.1c0.9,0,1.7,0,1.7,0s-0.7,0.3-1.7,0.3C26.5,41.2,26,41,25.9,41L25.9,41z"/>
		</g>
		<g id="path3278">
			<path fill="#F3F0EC" d="M25.8,42.7c0.2,0,0.1-0.2,1.4-0.2c1.3,0,1.9,0.1,1.9,0.1s0.3,0-1.1,0.2C26.5,42.9,25.8,42.6,25.8,42.7z"
				/>
		</g>
		<g id="path3280">
			<path fill="#F3F0EC" d="M26.6,43.5c0.3,0,0.4-0.1,1.1-0.1c0.7,0,0.1,0.2,0.1,0.2s-0.1,0.1-0.7,0.1C26.5,43.8,26.6,43.6,26.6,43.5
				L26.6,43.5z"/>
		</g>
	</g>
	<g id="path3282">
		
			<linearGradient id="SVGID_1_" gradientUnits="userSpaceOnUse" x1="-0.2554" y1="187.2432" x2="0.759" y2="187.2432" gradientTransform="matrix(264.11 0 0 -7.2534 -61.85 1402.3831)">
			<stop  offset="0" style="stop-color:#F3F0EC;stop-opacity:0.119"/>
			<stop  offset="0.5" style="stop-color:#F3F0EC;stop-opacity:0.498"/>
			<stop  offset="1" style="stop-color:#F3F0EC;stop-opacity:0"/>
		</linearGradient>
		<path opacity="0.533" fill="none" stroke="url(#SVGID_1_)" stroke-width="11" d="M19.5,44.1c0,0,3.8,0.1,5.4,0.1
			c1.6,0,5.6-0.3,5.6-0.3"/>
	</g>
	<g>
		<g id="path2254">
			<path opacity="0.257" fill="#E2DAD3" d="M30.5,37.8c0,0,0.1-0.2-0.3,0.1s0.3,0.5,0.3,0.5L30.5,37.8L30.5,37.8z"/>
		</g>
		<g id="path2256">
			<path opacity="0.257" fill="#E2DAD3" d="M30.4,39.5c0,0-0.4-0.1-0.4,0.2c0,0.3,0.6,0.5,0.6,0.5L30.4,39.5L30.4,39.5z"/>
		</g>
		<g id="path2258">
			<path opacity="0.257" fill="#E2DAD3" d="M30.3,41.1c0,0-0.4-0.1-0.5,0.1c-0.1,0.3,0.6,0.5,0.6,0.5L30.3,41.1L30.3,41.1z"/>
		</g>
		<g id="path2260">
			<path opacity="0.257" fill="#E2DAD3" d="M30.3,42.8c0,0-0.2-0.2-0.3,0.1c-0.1,0.3,0.5,0.5,0.5,0.5L30.3,42.8L30.3,42.8z"/>
		</g>
	</g>
	<g id="path3197">
		<path fill="#5B5A58" d="M19.4,38.1c0,0,4.6-0.2,5.8-0.3c1.2-0.1,5,0,5,0s-3.2,0.6-4.8,0.6C23.8,38.4,19.4,38.1,19.4,38.1
			L19.4,38.1z"/>
	</g>
	<g>
		<g id="path3199">
			<path fill="#64625B" d="M19.5,40c0,0,4.5-0.4,5.8-0.4c1.3,0,5.1-0.1,4.9,0c-0.2,0-1.3,0.4-3.5,0.5C24.6,40.1,19.4,40.1,19.5,40
				L19.5,40z"/>
		</g>
		<g id="path3201">
			<path fill="#64625B" d="M19.7,41.6c0,0,3.6-0.2,5.1-0.3c1.5,0,5.3-0.2,5.3-0.2s-0.5,0.4-2.5,0.4C25.6,41.7,19.6,41.7,19.7,41.6
				L19.7,41.6z"/>
		</g>
		<g id="path3203">
			<path fill="#64625B" d="M19.6,43.4c0,0,4-0.2,5.5-0.4c1.5-0.1,5-0.2,5-0.2s-0.4,0.1-2.4,0.4C25.7,43.4,19.5,43.4,19.6,43.4
				L19.6,43.4z"/>
		</g>
	</g>
	<g id="path3272">
		<path fill="none" stroke="#4B4B48" stroke-width="6" d="M19.3,36.1c0,0,3.6-0.1,5.2-0.1c1.6,0,6.1,0.1,6.1,0.1"/>
	</g>
</g>
<g id="layer8">
	<path id="path2267" fill="#95948F" d="M24.1,20.5c0,0,0,3.7,0,3.7c0,0.1,0,0.3,0,0.3c0,0.5-1.1,0.8-1.3,0.7c-0.4-0.1-0.4,0.5-0.5,1
		c0,0.7,0.4,2.4,0.3,2.7c0,0,0,0,0,0c0.1-0.1,0.2-0.2,0.3-0.4c0.3-0.7,0.4-0.5,0.1-1.3c-0.3-0.8-0.6-1.4,0.2-1.6
		c0.8-0.2,0.9-0.5,1.7-0.3c0.8,0.2,1.7,0.1,1.9,1.1c0.2,1-0.1,1.6,0.2,2.1c0.1,0.2,0.3,0.2,0.5,0.4c0-0.2-0.1-0.4-0.1-0.6
		c-0.1-0.8,0.3-2.7,0.1-3c-0.2-0.3-0.6,0.1-1.3-0.2c-0.4-0.1-0.4-0.3-0.4-0.5c0,0,0.1-4.3-0.2-4.3c-0.5,0-0.3,4.3-0.7,4.2
		C24.6,24.4,24.3,20.5,24.1,20.5L24.1,20.5z"/>
	
		<linearGradient id="path3263_1_" gradientUnits="userSpaceOnUse" x1="-5.8196" y1="53.6682" x2="-5.7779" y2="53.6682" gradientTransform="matrix(41.8873 0 0 -217.3116 267.7105 11693.6162)">
		<stop  offset="0" style="stop-color:#9B928A"/>
		<stop  offset="0.1504" style="stop-color:#9B928A"/>
		<stop  offset="0.2557" style="stop-color:#ECEAE8"/>
		<stop  offset="0.7168" style="stop-color:#ECEAE8"/>
		<stop  offset="1" style="stop-color:#766C63"/>
	</linearGradient>
	<path id="path3263" fill="url(#path3263_1_)" d="M24.7,26.4c-1,0-0.7,1.7-0.8,2.7c-0.1,0.9,0,5.1,0.1,6.4c0.5,0,1.1,0,1.6,0
		c0-1.1,0-5.5-0.1-6.3C25.6,28.2,25.8,26.4,24.7,26.4C24.8,26.4,24.7,26.4,24.7,26.4L24.7,26.4z"/>
	
		<linearGradient id="path3243_1_" gradientUnits="userSpaceOnUse" x1="-0.9621" y1="54.0267" x2="-0.9621" y2="53.9869" gradientTransform="matrix(125.7796 0 0 -198.5482 146.006 10754.1826)">
		<stop  offset="0" style="stop-color:#686561"/>
		<stop  offset="0.1877" style="stop-color:#53504D"/>
		<stop  offset="0.3099" style="stop-color:#8E8C88"/>
		<stop  offset="1" style="stop-color:#BEBCBA"/>
	</linearGradient>
	<path id="path3243" fill="url(#path3243_1_)" d="M24.5,27.1c-0.1,0-0.2,0.1-0.4,0.2c-0.3,0.4-0.4,0.5-0.7,0.6
		c-0.3,0.1-0.3,0.4-0.9,0.9c0,0,0,0,0,0c0,0,0,0,0,0.1c0,0,0,0,0,0c0,0,0,0,0,0c0,0.1,0,0.1,0,0.1c0,0,0,0,0,0c0,0.1,0,0.1,0,0.1
		c0,0,0,0,0,0.1c0,0,0,0,0,0.1c0,0,0,0,0,0.1s0,0,0,0.1c0,0,0,0.1,0,0.3c0,0.2,0,0.5,0,1c0,0.6-0.1,3.2,0.1,4.4c0,0,0,0,0,0
		c0.1,0.1,0.3,0.1,0.5,0.1c0.5-0.1-0.5-7.6,1.4-6.4c0.9,0.6,0.9-0.2,1.4-0.3c1.4-0.1,1.1,5.1,1.3,6.5c0,0,0,0.1,0,0.2
		c0.2,0,0.4-0.1,0.5-0.2c0,0,0-0.1,0-0.1c0-0.1,0-0.1,0-0.2c0-1,0-4.7-0.1-5.3c0-0.2,0-0.5-0.1-0.7c0-0.1,0-0.2,0-0.3c0,0,0,0,0,0
		c-0.9-0.8-0.4-0.7-1-0.9c-0.6-0.3-0.1,0.1-0.8-0.3C25.1,27.3,24.8,27.1,24.5,27.1L24.5,27.1z"/>
	<path id="path3283" fill="#2C2D2C" stroke="#030104" stroke-width="0.731" d="M25.7,19.6c-0.5,0-1.6,0.1-2.1,0.1
		c-0.5,0-0.7,0.3-0.3,0.6c0,0,0,0,0,0c0.2,0.1,0.4,0.1,0.6,0.1c0,0,0.1,0,0.1,0v0c0,0,0,0,0.1,0c0.8,0,1,0.2,1.7,0.1c0,0,0,0,0-0.1
		c0.2-0.3,0.7-0.1,0.9-0.4c0.1-0.2-0.3-0.3-0.8-0.4C25.9,19.6,25.8,19.6,25.7,19.6L25.7,19.6z"/>
	
		<linearGradient id="path3314_1_" gradientUnits="userSpaceOnUse" x1="-0.9396" y1="52.1146" x2="-0.8978" y2="52.1146" gradientTransform="matrix(127.7162 0 0 -378.1431 142.2888 19734.2793)">
		<stop  offset="0" style="stop-color:#F9F9F9;stop-opacity:0.195"/>
		<stop  offset="0.6991" style="stop-color:#F9F9F9;stop-opacity:0.447"/>
		<stop  offset="1" style="stop-color:#F9F9F9;stop-opacity:0.239"/>
	</linearGradient>
	<path id="path3314" fill="url(#path3314_1_)" stroke="#818080" stroke-width="0.727" d="M22.5,35.2c0-1.2-0.1-4-0.1-4.6
		c0-1.7,0-1.3,0.2-1.9c0.1-0.3-0.3-1.9-0.3-2.6c0-0.5,0-1.1,0.5-1c0.2,0.1,1.3-0.2,1.3-0.7c0-0.6,0-4.1,0-4.1s-0.4,0.1-0.7-0.1
		c-0.4-0.3-0.2-0.6,0.3-0.6c0.5,0,1.9-0.1,2.3-0.1c0.4,0,0.9,0.1,0.8,0.4c-0.2,0.4-0.7,0.1-0.9,0.4c-0.1,0.2,0,3.3,0,3.7
		c0,0.5-0.1,0.6,0.4,0.8c0.7,0.3,1-0.1,1.3,0.2c0.2,0.3-0.2,2.1-0.1,3c0,0.4,0.2,0.8,0.2,1.4c0,0.6,0.1,5.3,0.1,5.6
		C27.6,35.5,22.5,35.4,22.5,35.2L22.5,35.2z"/>
	<path id="path3285" fill="#95948F" d="M24.1,20.5c0,0,0,3.7,0,3.7c0,0.1,0,0.3,0,0.3c0,0.5-1.1,0.8-1.3,0.7c-0.4-0.1-0.4,0.5-0.5,1
		c0,0.7,0.4,2.4,0.3,2.7c0,0,0,0,0,0c0.1-0.1,0.2-0.2,0.3-0.4c0.3-0.7,0.4-0.5,0.1-1.3c-0.3-0.8-0.6-1.4,0.2-1.6
		c0.8-0.2,0.9-0.5,1.7-0.3c0.8,0.2,1.7,0.1,1.9,1.1c0.2,1-0.1,1.6,0.2,2.1c0.1,0.2,0.3,0.2,0.5,0.4c0-0.2-0.1-0.4-0.1-0.6
		c-0.1-0.8,0.3-2.7,0.1-3c-0.2-0.3-0.6,0.1-1.3-0.2c-0.4-0.1-0.4-0.3-0.4-0.5c0,0,0.1-4.3-0.2-4.3c-0.5,0-0.3,4.3-0.7,4.2
		C24.6,24.4,24.3,20.5,24.1,20.5L24.1,20.5z"/>
</g>
<g>
	<g>
		<path id="path3297" fill="none" stroke="#333333" stroke-width="0.75" stroke-linecap="round" d="M22.6,29c0,0,0.2-1.6,0.2-2.2
			c0-0.5,0-0.8,0-1.2c0-0.4,0.2-0.2,0-0.9c-0.2-0.7-1.4-3.9-1.7-4.5c-0.3-0.6-1.4-3.2-1.7-3.8c-0.3-0.6-0.8-1.6-0.8-1.6"/>
		<path id="path3299" fill="none" stroke="#333333" stroke-width="0.75" stroke-linecap="round" d="M27.1,28.3c0-0.2,0-1.7-0.1-2
			c-0.1-0.3-0.3-0.4-0.3-0.4s0.2-0.6,0.2-0.7c0-0.1-0.1-0.4,0-0.9c0.1-0.5,1-2.7,1.3-3.4c0.3-0.6,1.1-3.2,1.4-3.8
			c0.3-0.7,0.9-2.2,0.9-2.2"/>
	</g>
	<g>
		<g>
			<path id="path2288" fill="none" stroke="#030104" stroke-width="0.75" d="M26,19.8c0,0,0.3-1.2,0.6-2.1c0.2-0.9,0.9-2.6,0.9-3
				c0-0.4-0.4-0.6-0.4-0.2c-0.1,0.4,0.5,0.8,0.5,0.2c0-0.6,0-1.4,0-1.4"/>
			<path id="path2290" fill="none" stroke="#030104" stroke-width="0.75" d="M23.9,20c0-0.1-0.3-0.9-0.5-1.8
				c-0.1-0.9-0.5-1.8-0.7-2.3c-0.2-0.5-0.3-0.8-0.5-1.2c-0.2-0.5,0.1-0.6,0.3-0.1c0.2,0.5-0.1,0.9-0.3,0.4c-0.2-0.6-0.4-1.2-0.4-1.2
				"/>
			<path id="path2292" fill="none" stroke="#030104" stroke-width="0.75" d="M18.8,14.9c0,0,0.4-0.3,1.2-0.4c0.8,0,0.8,0,1.6,0
				c0.8,0,0.5,0.1,1.3,0c0.8-0.1,1.2-0.1,2.2,0.1s1.1,0.5,1.9,0.4c0.8-0.1,0.9-0.2,1.7-0.3c0.8,0,1.7,0.1,1.8,0.2s0.2,0.1,0.2,0.1"
				/>
		</g>
		<path id="path8972" fill="none" stroke="#030104" stroke-width="0.75" d="M18.8,15c0,0-0.1-0.2-0.1-0.1
			C18.9,14.9,18.9,14.9,18.8,15 M18.9,14.9c0,0-0.1-0.2-0.1-0.1C18.9,14.9,18.9,14.9,18.9,14.9 M18.9,14.9c0,0-0.1-0.2-0.1-0.1
			S19,14.9,18.9,14.9 M19,14.9c0,0-0.1-0.2,0-0.2S19,14.9,19,14.9 M19,14.9c0,0-0.1-0.2,0-0.2C19,14.8,19.1,14.8,19,14.9 M19.1,14.8
			c0,0-0.1-0.2,0-0.2C19.1,14.8,19.1,14.8,19.1,14.8 M19.1,14.8c0,0-0.1-0.2,0-0.2C19.1,14.7,19.1,14.8,19.1,14.8 M19.2,14.8
			c0,0-0.1-0.2,0-0.2C19.2,14.7,19.2,14.8,19.2,14.8 M19.2,14.8c0,0-0.1-0.2,0-0.2C19.2,14.7,19.2,14.8,19.2,14.8 M19.3,14.8
			c0,0-0.1-0.2,0-0.2C19.3,14.7,19.3,14.8,19.3,14.8 M19.3,14.8c0,0-0.1-0.2,0-0.2C19.3,14.7,19.3,14.7,19.3,14.8 M19.4,14.7
			c0,0-0.1-0.2,0-0.2C19.4,14.7,19.4,14.7,19.4,14.7 M19.4,14.7c0,0-0.1-0.2,0-0.2C19.4,14.6,19.4,14.7,19.4,14.7 M19.4,14.7
			c0,0-0.1-0.2,0-0.2C19.5,14.6,19.5,14.7,19.4,14.7 M19.5,14.7c0,0-0.1-0.2,0-0.2C19.5,14.6,19.5,14.7,19.5,14.7 M19.5,14.7
			c0,0-0.1-0.2,0-0.2C19.6,14.6,19.6,14.7,19.5,14.7 M19.6,14.7c0,0,0-0.2,0-0.2S19.6,14.7,19.6,14.7 M19.6,14.7c0,0,0-0.2,0-0.2
			C19.7,14.6,19.7,14.7,19.6,14.7 M19.7,14.7c0,0,0-0.2,0-0.2C19.7,14.6,19.7,14.6,19.7,14.7 M19.8,14.6c0,0,0-0.2,0-0.2
			C19.8,14.6,19.8,14.6,19.8,14.6 M19.8,14.6c0,0,0-0.2,0-0.2C19.8,14.6,19.9,14.6,19.8,14.6 M19.9,14.6c0,0,0-0.2,0-0.2
			C19.9,14.6,19.9,14.6,19.9,14.6 M19.9,14.6c0,0,0-0.2,0-0.2C20,14.6,20,14.6,19.9,14.6 M20,14.6c0,0,0-0.2,0-0.2
			C20,14.6,20,14.6,20,14.6 M20,14.6c0,0,0-0.2,0-0.2C20.1,14.6,20.1,14.6,20,14.6 M20.1,14.6c0,0,0-0.2,0-0.2
			C20.1,14.5,20.1,14.6,20.1,14.6 M20.1,14.6c0,0,0-0.2,0-0.2C20.2,14.5,20.2,14.6,20.1,14.6 M20.2,14.6c0,0,0-0.2,0-0.2
			C20.2,14.5,20.2,14.6,20.2,14.6 M20.2,14.6c0,0,0-0.2,0-0.2C20.3,14.5,20.3,14.6,20.2,14.6 M20.3,14.6c0,0,0-0.2,0-0.2
			C20.3,14.5,20.3,14.6,20.3,14.6 M20.3,14.6c0,0,0-0.2,0-0.2C20.4,14.5,20.4,14.6,20.3,14.6 M20.4,14.6c0,0,0-0.2,0-0.2
			C20.4,14.5,20.4,14.6,20.4,14.6 M20.4,14.6c0,0,0-0.2,0-0.2C20.5,14.5,20.5,14.6,20.4,14.6 M20.5,14.6c0,0,0-0.2,0-0.2
			C20.5,14.5,20.5,14.6,20.5,14.6 M20.5,14.6c0,0,0-0.2,0-0.2C20.6,14.5,20.6,14.6,20.5,14.6 M20.6,14.6c0,0,0-0.2,0-0.2
			C20.7,14.5,20.6,14.6,20.6,14.6 M20.7,14.6c0,0,0-0.2,0-0.2C20.7,14.5,20.7,14.6,20.7,14.6 M20.7,14.6c0,0,0-0.2,0-0.2
			C20.8,14.5,20.8,14.6,20.7,14.6 M20.8,14.6c0,0,0-0.2,0-0.2C20.8,14.5,20.8,14.6,20.8,14.6 M20.8,14.6c0,0,0-0.2,0-0.2
			C20.9,14.5,20.9,14.6,20.8,14.6 M20.9,14.6c0,0,0-0.2,0-0.2C20.9,14.5,20.9,14.6,20.9,14.6 M20.9,14.6c0,0,0-0.2,0-0.2
			S21,14.6,20.9,14.6 M21,14.6c0,0,0-0.2,0-0.2C21,14.5,21,14.6,21,14.6 M21,14.6c0,0,0-0.2,0-0.2C21.1,14.5,21.1,14.6,21,14.6
			 M21.1,14.6c0,0,0-0.2,0-0.2C21.1,14.5,21.1,14.6,21.1,14.6 M21.1,14.6c0,0,0-0.2,0-0.2C21.2,14.5,21.2,14.6,21.1,14.6 M21.2,14.6
			c0,0,0-0.2,0-0.2C21.2,14.5,21.2,14.6,21.2,14.6 M21.2,14.6c0,0,0-0.2,0-0.2C21.3,14.5,21.3,14.6,21.2,14.6 M21.3,14.6
			c0,0,0-0.2,0-0.2C21.4,14.5,21.3,14.6,21.3,14.6 M21.3,14.6c0,0,0-0.2,0-0.2C21.4,14.5,21.4,14.6,21.3,14.6 M21.4,14.6
			c0,0,0-0.2,0-0.2C21.5,14.5,21.5,14.6,21.4,14.6 M21.5,14.6c0,0,0-0.2,0-0.2C21.5,14.5,21.5,14.6,21.5,14.6 M21.5,14.6
			c0,0,0-0.2,0-0.2C21.6,14.5,21.6,14.6,21.5,14.6 M21.6,14.6c0,0,0-0.2,0-0.2C21.6,14.5,21.6,14.6,21.6,14.6 M21.6,14.6
			c0,0,0-0.2,0-0.2C21.7,14.5,21.7,14.6,21.6,14.6 M21.7,14.6c0,0,0-0.2,0-0.2C21.7,14.5,21.7,14.6,21.7,14.6 M21.7,14.6
			c0,0,0-0.2,0-0.2C21.8,14.5,21.8,14.6,21.7,14.6 M21.8,14.6c0,0,0-0.2,0-0.2C21.8,14.5,21.8,14.6,21.8,14.6 M21.8,14.6
			c0,0,0-0.2,0-0.2C21.9,14.5,21.9,14.6,21.8,14.6 M21.9,14.6c0,0,0-0.2,0-0.2S21.9,14.6,21.9,14.6 M21.9,14.6c0,0,0-0.2,0-0.2
			C22,14.6,22,14.6,21.9,14.6 M22,14.6c0,0,0-0.2,0-0.2C22.1,14.6,22,14.6,22,14.6 M22,14.6c0,0,0-0.2,0-0.2
			C22.1,14.6,22.1,14.6,22,14.6 M22.1,14.6c0,0,0-0.2,0-0.2C22.2,14.6,22.1,14.6,22.1,14.6 M22.2,14.6c0,0,0-0.2,0-0.2
			S22.2,14.6,22.2,14.6 M22.2,14.6c0,0,0-0.2,0-0.2C22.3,14.6,22.3,14.6,22.2,14.6 M22.3,14.6c0,0,0-0.2,0-0.2
			C22.3,14.6,22.3,14.6,22.3,14.6 M22.3,14.6c0,0,0-0.2,0-0.2C22.4,14.6,22.4,14.6,22.3,14.6 M22.4,14.6c0,0,0-0.2,0-0.2
			S22.4,14.6,22.4,14.6 M22.4,14.6c0,0,0-0.2,0-0.2S22.5,14.6,22.4,14.6 M22.5,14.6c0,0,0-0.2,0-0.2C22.5,14.6,22.5,14.6,22.5,14.6
			 M22.5,14.6c0,0,0-0.2,0-0.2S22.6,14.6,22.5,14.6 M22.6,14.6c0,0,0-0.2,0-0.2C22.7,14.5,22.6,14.6,22.6,14.6 M22.7,14.6
			c0,0,0-0.2,0-0.2C22.7,14.5,22.7,14.6,22.7,14.6 M22.7,14.6c0,0,0-0.2,0-0.2C22.8,14.5,22.8,14.6,22.7,14.6 M22.8,14.6
			c0,0,0-0.2,0-0.2C22.8,14.5,22.8,14.6,22.8,14.6 M22.8,14.6c0,0,0-0.2,0-0.2C22.9,14.5,22.9,14.6,22.8,14.6 M22.9,14.6
			c0,0,0-0.2,0-0.2C22.9,14.5,22.9,14.6,22.9,14.6 M22.9,14.6c0,0,0-0.2,0-0.2C23,14.5,23,14.6,22.9,14.6 M23,14.6c0,0,0-0.2,0-0.2
			C23,14.5,23,14.6,23,14.6 M23,14.6c0,0,0-0.2,0-0.2C23.1,14.5,23.1,14.6,23,14.6 M23.1,14.6c0,0,0-0.2,0-0.2
			C23.1,14.5,23.1,14.6,23.1,14.6 M23.1,14.6c0,0,0-0.2,0-0.2C23.2,14.5,23.2,14.6,23.1,14.6 M23.2,14.6c0,0,0-0.2,0-0.2
			C23.2,14.5,23.2,14.6,23.2,14.6 M23.2,14.6c0,0,0-0.2,0-0.2C23.3,14.5,23.3,14.6,23.2,14.6 M23.3,14.6c0,0,0-0.2,0-0.2
			C23.4,14.5,23.3,14.6,23.3,14.6 M23.4,14.6c0,0,0-0.2,0-0.2S23.4,14.6,23.4,14.6 M23.4,14.6c0,0,0-0.2,0-0.2
			C23.5,14.5,23.5,14.6,23.4,14.6 M23.5,14.6c0,0,0-0.2,0-0.2C23.5,14.5,23.5,14.6,23.5,14.6 M23.5,14.6c0,0,0-0.2,0-0.2
			C23.6,14.5,23.6,14.5,23.5,14.6 M23.6,14.5c0,0,0-0.2,0-0.2C23.6,14.5,23.6,14.5,23.6,14.5 M23.6,14.5c0,0,0-0.2,0-0.2
			C23.7,14.5,23.7,14.5,23.6,14.5 M23.7,14.5c0,0,0-0.2,0-0.2C23.7,14.5,23.7,14.5,23.7,14.5 M23.7,14.5c0,0,0-0.2,0-0.2
			C23.8,14.5,23.8,14.5,23.7,14.5 M23.8,14.5c0,0,0-0.2,0-0.2C23.8,14.5,23.8,14.5,23.8,14.5 M23.8,14.5c0,0,0-0.2,0-0.2
			C23.9,14.5,23.9,14.5,23.8,14.5 M23.9,14.5c0,0,0-0.2,0-0.2C23.9,14.5,23.9,14.5,23.9,14.5 M23.9,14.5c0,0,0-0.2,0-0.2
			S24,14.5,23.9,14.5 M24,14.5c0,0,0-0.2,0-0.2C24,14.5,24,14.5,24,14.5 M24,14.5c0,0,0-0.2,0-0.2C24.1,14.5,24.1,14.5,24,14.5
			 M24.1,14.5c0,0,0-0.2,0-0.2C24.2,14.5,24.1,14.5,24.1,14.5 M24.1,14.5c0,0,0-0.2,0-0.2C24.2,14.5,24.2,14.6,24.1,14.5 M24.2,14.6
			c0,0,0-0.2,0-0.2C24.3,14.5,24.2,14.6,24.2,14.6 M24.3,14.6c0,0,0-0.2,0-0.2C24.3,14.5,24.3,14.6,24.3,14.6 M24.3,14.6
			c0,0,0-0.2,0-0.2C24.4,14.5,24.4,14.6,24.3,14.6 M24.4,14.6c0,0,0-0.2,0-0.2C24.4,14.5,24.4,14.6,24.4,14.6 M24.4,14.6
			c0,0,0-0.2,0-0.2C24.5,14.5,24.5,14.6,24.4,14.6 M24.5,14.6c0,0,0-0.2,0-0.2C24.5,14.5,24.5,14.6,24.5,14.6 M24.5,14.6
			c0,0,0-0.2,0-0.2C24.6,14.5,24.6,14.6,24.5,14.6 M24.6,14.6c0,0,0-0.2,0-0.2C24.6,14.5,24.6,14.6,24.6,14.6 M24.6,14.6
			c0,0,0-0.2,0-0.2C24.7,14.5,24.7,14.6,24.6,14.6 M24.7,14.6c0,0,0-0.2,0-0.2C24.7,14.5,24.7,14.6,24.7,14.6 M24.7,14.6
			c0,0,0-0.2,0.1-0.2C24.8,14.6,24.8,14.6,24.7,14.6 M24.8,14.6c0,0,0-0.2,0.1-0.2C24.8,14.6,24.8,14.6,24.8,14.6 M24.8,14.6
			c0,0,0-0.2,0.1-0.1C24.9,14.6,24.9,14.6,24.8,14.6 M24.9,14.6c0,0,0-0.2,0.1-0.1C24.9,14.6,24.9,14.6,24.9,14.6 M24.9,14.6
			c0,0,0-0.2,0.1-0.1C25,14.6,25,14.7,24.9,14.6 M25,14.7c0,0,0-0.2,0.1-0.1C25.1,14.6,25,14.7,25,14.7 M25,14.7c0,0,0-0.2,0.1-0.1
			C25.1,14.6,25.1,14.7,25,14.7 M25.1,14.7c0,0,0-0.2,0.1-0.1C25.2,14.6,25.1,14.7,25.1,14.7 M25.1,14.7c0,0,0-0.2,0.1-0.1
			S25.2,14.7,25.1,14.7 M25.2,14.7c0,0,0.1-0.2,0.1-0.1C25.3,14.6,25.2,14.7,25.2,14.7 M25.2,14.7c0,0,0.1-0.2,0.1-0.1
			C25.3,14.7,25.3,14.7,25.2,14.7 M25.3,14.7c0,0,0.1-0.2,0.1-0.1C25.4,14.7,25.3,14.7,25.3,14.7 M25.4,14.7c0,0,0.1-0.2,0.1-0.1
			C25.4,14.7,25.4,14.7,25.4,14.7 M25.4,14.7c0,0,0.1-0.2,0.1-0.1C25.5,14.7,25.4,14.8,25.4,14.7 M25.5,14.8c0,0,0.1-0.2,0.1-0.1
			C25.5,14.7,25.5,14.8,25.5,14.8 M25.5,14.8c0,0,0.1-0.2,0.1-0.1C25.6,14.7,25.5,14.8,25.5,14.8 M25.6,14.8c0,0,0.1-0.2,0.1-0.1
			C25.6,14.7,25.6,14.8,25.6,14.8 M25.6,14.8c0,0,0.1-0.2,0.1-0.1C25.7,14.8,25.6,14.8,25.6,14.8 M25.7,14.8c0,0,0.1-0.2,0.1-0.1
			C25.7,14.8,25.7,14.8,25.7,14.8 M25.7,14.8c0,0,0.1-0.2,0.1-0.1C25.8,14.8,25.7,14.8,25.7,14.8 M25.8,14.9c0,0,0.1-0.2,0.1-0.1
			C25.8,14.8,25.8,14.9,25.8,14.9 M25.8,14.9c0,0,0.1-0.2,0.1-0.1C25.9,14.8,25.8,14.9,25.8,14.9 M25.9,14.9c0,0,0.1-0.2,0.1-0.1
			C25.9,14.8,25.9,14.9,25.9,14.9 M25.9,14.9c0,0,0.1-0.2,0.1-0.1C26,14.9,25.9,14.9,25.9,14.9 M26,14.9c0,0,0.1-0.2,0.1-0.1
			C26,14.9,26,14.9,26,14.9 M26,14.9c0,0,0.1-0.2,0.1-0.1C26.1,14.9,26.1,15,26,14.9 M26.1,15c0,0,0.1-0.2,0.1-0.1
			C26.1,14.9,26.1,15,26.1,15 M26.1,15c0,0,0.1-0.2,0.1-0.1C26.2,14.9,26.2,15,26.1,15 M26.2,15c0,0,0.1-0.2,0.1-0.1
			C26.2,14.9,26.2,15,26.2,15 M26.2,15c0,0,0.1-0.2,0.1-0.1C26.3,15,26.3,15,26.2,15 M26.3,15c0,0,0.1-0.2,0.1-0.1
			C26.3,15,26.3,15,26.3,15 M26.3,15c0,0,0-0.2,0.1-0.1C26.4,15,26.4,15.1,26.3,15 M26.4,15.1c0,0,0-0.2,0-0.2S26.4,15.1,26.4,15.1
			 M26.5,15.1c0,0,0-0.2,0-0.2C26.5,15,26.5,15.1,26.5,15.1 M26.5,15.1c0,0,0-0.2,0-0.2C26.6,15,26.6,15.1,26.5,15.1 M26.6,15.1
			c0,0,0-0.2,0-0.2C26.6,15,26.6,15.1,26.6,15.1 M26.6,15.1c0,0,0-0.2,0-0.2C26.7,15,26.7,15.1,26.6,15.1 M26.7,15.1
			c0,0,0-0.2,0-0.2C26.7,15,26.7,15.1,26.7,15.1 M26.7,15.1c0,0,0-0.2,0-0.2C26.8,15,26.8,15.1,26.7,15.1 M26.8,15.1
			c0,0,0-0.2,0-0.2C26.8,15,26.8,15.1,26.8,15.1 M26.9,15.1c0,0,0-0.2,0-0.2C26.9,15,26.9,15.1,26.9,15.1 M26.9,15.1
			c0,0,0-0.2,0-0.2C27,15,27,15,26.9,15.1 M27,15c0,0,0-0.2,0-0.2C27,15,27,15,27,15 M27,15c0,0,0-0.2,0-0.2C27.1,15,27.1,15,27,15
			 M27.1,15c0,0,0-0.2,0-0.2C27.1,15,27.1,15,27.1,15 M27.1,15c0,0,0-0.2,0-0.2C27.2,14.9,27.2,15,27.1,15 M27.2,15c0,0,0-0.2,0-0.2
			C27.2,14.9,27.2,15,27.2,15 M27.2,15c0,0,0-0.2,0-0.2C27.3,14.9,27.3,15,27.2,15 M27.3,15c0,0,0-0.2,0-0.2
			C27.3,14.9,27.3,15,27.3,15 M27.3,15c0,0-0.1-0.2,0-0.2C27.4,14.9,27.4,15,27.3,15 M27.4,15c0,0-0.1-0.2,0-0.2
			C27.4,14.9,27.5,15,27.4,15 M27.5,15c0,0-0.1-0.2,0-0.2C27.5,14.9,27.5,14.9,27.5,15 M27.5,14.9c0,0-0.1-0.2,0-0.2
			C27.5,14.9,27.6,14.9,27.5,14.9 M27.6,14.9c0,0-0.1-0.2,0-0.2C27.6,14.9,27.6,14.9,27.6,14.9 M27.6,14.9c0,0-0.1-0.2,0-0.2
			C27.7,14.8,27.7,14.9,27.6,14.9 M27.7,14.9c0,0-0.1-0.2,0-0.2C27.7,14.8,27.7,14.9,27.7,14.9 M27.7,14.9c0,0-0.1-0.2,0-0.2
			C27.8,14.8,27.8,14.9,27.7,14.9 M27.8,14.9c0,0-0.1-0.2,0-0.2C27.8,14.8,27.8,14.9,27.8,14.9 M27.8,14.9c0,0-0.1-0.2,0-0.2
			C27.9,14.8,27.9,14.9,27.8,14.9 M27.9,14.9c0,0-0.1-0.2,0-0.2C27.9,14.8,27.9,14.8,27.9,14.9 M27.9,14.8c0,0-0.1-0.2,0-0.2
			C28,14.8,28,14.8,27.9,14.8 M28,14.8c0,0,0-0.2,0-0.2S28,14.8,28,14.8 M28,14.8c0,0,0-0.2,0-0.2C28.1,14.8,28.1,14.8,28,14.8
			 M28.1,14.8c0,0,0-0.2,0-0.2C28.1,14.7,28.1,14.8,28.1,14.8 M28.1,14.8c0,0,0-0.2,0-0.2C28.2,14.7,28.2,14.8,28.1,14.8 M28.2,14.8
			c0,0,0-0.2,0-0.2C28.2,14.7,28.2,14.8,28.2,14.8 M28.2,14.8c0,0,0-0.2,0-0.2C28.3,14.7,28.3,14.8,28.2,14.8 M28.3,14.8
			c0,0,0-0.2,0-0.2C28.3,14.7,28.3,14.8,28.3,14.8 M28.3,14.8c0,0,0-0.2,0-0.2C28.4,14.7,28.4,14.8,28.3,14.8 M28.4,14.8
			c0,0,0-0.2,0-0.2C28.4,14.7,28.4,14.8,28.4,14.8 M28.4,14.8c0,0,0-0.2,0-0.2C28.5,14.7,28.5,14.8,28.4,14.8 M28.5,14.8
			c0,0,0-0.2,0-0.2C28.5,14.7,28.5,14.8,28.5,14.8 M28.6,14.8c0,0,0-0.2,0-0.2C28.6,14.7,28.6,14.8,28.6,14.8 M28.6,14.8
			c0,0,0-0.2,0-0.2C28.7,14.7,28.6,14.8,28.6,14.8 M28.7,14.8c0,0,0-0.2,0-0.2C28.7,14.7,28.7,14.8,28.7,14.8 M28.7,14.8
			c0,0,0-0.2,0-0.2C28.8,14.7,28.8,14.8,28.7,14.8 M28.8,14.8c0,0,0-0.2,0-0.2C28.8,14.7,28.8,14.8,28.8,14.8 M28.8,14.8
			c0,0,0-0.2,0-0.2C28.9,14.7,28.9,14.8,28.8,14.8 M28.9,14.8c0,0,0-0.2,0-0.2C28.9,14.7,28.9,14.8,28.9,14.8 M28.9,14.8
			c0,0,0-0.2,0-0.2C29,14.7,29,14.8,28.9,14.8 M29,14.8c0,0,0-0.2,0-0.2C29,14.7,29,14.8,29,14.8 M29,14.8c0,0,0-0.2,0-0.2
			C29.1,14.7,29.1,14.8,29,14.8 M29.1,14.8c0,0,0-0.2,0-0.2C29.1,14.7,29.1,14.8,29.1,14.8 M29.1,14.8c0,0,0-0.2,0-0.2
			C29.2,14.7,29.2,14.8,29.1,14.8 M29.2,14.8c0,0,0-0.2,0-0.2C29.2,14.7,29.2,14.8,29.2,14.8 M29.2,14.8c0,0,0-0.2,0-0.2
			C29.3,14.7,29.3,14.8,29.2,14.8 M29.3,14.8c0,0,0-0.2,0-0.2C29.3,14.7,29.3,14.8,29.3,14.8 M29.3,14.8c0,0,0-0.2,0-0.2
			C29.4,14.7,29.4,14.8,29.3,14.8 M29.4,14.8c0,0,0-0.2,0-0.2C29.5,14.7,29.4,14.8,29.4,14.8 M29.5,14.8c0,0,0-0.2,0-0.2
			C29.5,14.7,29.5,14.8,29.5,14.8 M29.5,14.8c0,0,0-0.2,0-0.2C29.6,14.7,29.5,14.8,29.5,14.8 M29.6,14.8c0,0,0-0.2,0-0.2
			C29.6,14.7,29.6,14.8,29.6,14.8 M29.6,14.8c0,0,0-0.2,0-0.2C29.7,14.7,29.7,14.8,29.6,14.8 M29.7,14.8c0,0,0-0.2,0-0.2
			C29.7,14.7,29.7,14.8,29.7,14.8 M29.7,14.8c0,0,0-0.2,0-0.2C29.8,14.7,29.8,14.8,29.7,14.8 M29.8,14.8c0,0,0-0.2,0-0.2
			C29.8,14.8,29.8,14.8,29.8,14.8 M29.8,14.8c0,0,0-0.2,0-0.2C29.9,14.8,29.9,14.8,29.8,14.8 M29.9,14.8c0,0,0-0.2,0.1-0.2
			C29.9,14.8,29.9,14.8,29.9,14.8 M29.9,14.8c0,0,0-0.2,0.1-0.2C30,14.8,30,14.8,29.9,14.8 M30,14.8c0,0,0-0.2,0.1-0.1
			C30,14.8,30,14.8,30,14.8 M30,14.9c0,0,0-0.2,0.1-0.1C30.1,14.8,30.1,14.9,30,14.9 M30.1,14.9c0,0,0-0.2,0.1-0.1
			C30.1,14.8,30.1,14.9,30.1,14.9 M30.1,14.9c0,0,0-0.2,0.1-0.1C30.2,14.8,30.2,14.9,30.1,14.9 M30.2,14.9c0,0,0.1-0.2,0.1-0.1
			C30.2,14.8,30.2,14.9,30.2,14.9 M30.2,14.9c0,0,0.1-0.2,0.1-0.1C30.3,14.8,30.3,14.9,30.2,14.9 M30.3,14.9c0,0,0.1-0.2,0.1-0.1
			C30.3,14.9,30.3,14.9,30.3,14.9 M30.3,14.9c0,0,0.1-0.2,0.1-0.1C30.4,14.9,30.4,14.9,30.3,14.9 M30.4,14.9c0,0,0.1-0.2,0.1-0.1
			C30.4,14.9,30.4,15,30.4,14.9 M30.4,15c0,0,0.1-0.2,0.1-0.1C30.5,14.9,30.4,15,30.4,15 M30.4,15c0,0,0.1-0.2,0.1-0.1
			C30.5,15,30.5,15,30.4,15 M30.5,15c0,0,0.2-0.2,0.1-0.1C30.6,15,30.5,15,30.5,15"/>
	</g>
</g>
<radialGradient id="path2562_1_" cx="1.0356" cy="50.9796" r="2.081651e-02" gradientTransform="matrix(659.1113 0 0 -828.4483 -657.7366 42252.2266)" gradientUnits="userSpaceOnUse">
	<stop  offset="0" style="stop-color:#E9E43B;stop-opacity:0.996"/>
	<stop  offset="1" style="stop-color:#D17733;stop-opacity:0.996"/>
</radialGradient>
<path id="path2562" opacity="0.75" fill="url(#path2562_1_)" stroke="#666566" stroke-width="0.731" enable-background="new    " d="
	M30.2,35.5c0,0,0.3,0.1,0.8-0.2c0.6-0.4,1.5-2,1.5-2.4c0.1-1.9,0.3-3.8,0.9-5.1c1.2-2.9,5.2-7.3,5.2-13.8c0-6-5.9-13-12.9-13
	c-11.3-0.1-14.4,9.2-14.6,13.7c-0.1,3.4,1.8,7.2,4.5,11.7c2.6,4.5,1.3,5,2.1,7c0.6,1.4,1.3,2,1.3,2"/>
</svg>
