<?xml version="1.0" encoding="utf8" standalone="no"?>
<svg viewBox="0 0 389.76376 35.433071" xmlns="http://www.w3.org/2000/svg" xmlns:xlink="http://www.w3.org/1999/xlink">
<defs>
<clipPath id="clipPath4811">
<use height="1" transform="translate(128.40854,539.4577)" width="1" xlink:href="#rect4732"/>
</clipPath>
<filter height="1.98709" id="filter5208" width="1.65978" x="-.32989" y="-.49354">
<feGaussianBlur stdDeviation="1.57751"/>
</filter>
<filter height="3.19759" id="filter5305" width="1.18479" x="-.09239" y="-1.09879">
<feGaussianBlur stdDeviation=".90293"/>
</filter>
<filter height="1.58416" id="filter5531" width="1.55671" x="-.27836" y="-.29208">
<feGaussianBlur stdDeviation="1.2634"/>
</filter>
<filter height="1.74455" id="filter6453" width="1.78373" x="-.39187" y="-.37227">
<feGaussianBlur stdDeviation="2.3397"/>
</filter>
<linearGradient gradientUnits="userSpaceOnUse" id="linearGradient3307" spreadMethod="reflect" x2="0" y1="30.50727" y2="38.38056">
<stop offset="0"/>
<stop offset="1" stop-color="#c3c3c3"/>
</linearGradient>
<linearGradient gradientUnits="userSpaceOnUse" id="linearGradient3309" spreadMethod="reflect" x2="0" y1="22.33161" y2="38.34815">
<stop offset="0" stop-color="#323232"/>
<stop offset="1" stop-color="#fff" stop-opacity=".42268"/>
</linearGradient>
</defs>
<g transform="translate(-19.40384,-20.66404)">
<path d="m36.75141,38.38058h355.06862" fill="none" stroke="url(#linearGradient3307)" stroke-linecap="round" stroke-width="5"/>
<path d="m192.31697,28.0212c-7.31089,0-13.25001,4.65956-13.25,10.375s5.93911,10.34376 13.25,10.34375c2.92897,0 5.61866-.77124 7.8125-2.03125h28.28125c2.19626,1.26479 4.90869,2.03125 7.84375,2.03125 7.31089,0 13.24999-4.6283 13.25-10.34375s-5.9391-10.37499-13.25-10.375c-2.93507,0-5.64749.76646-7.84375,2.03125h-28.28125c-2.19384-1.26001-4.88353-2.03125-7.8125-2.03125z" fill="#d5b597" id="rect4732"/>
<path clip-path="url(#clipPath4811)" d="m318.51837,562.3728h5.33292v30.93092h-5.33292z" fill="#8f5902" transform="translate(-128.40854,-539.4577)"/>
<path clip-path="url(#clipPath4811)" d="m332.85803,562.3728h5.33292v30.93092h-5.33292z" fill="#4e9a06" transform="translate(-128.40854,-539.4577)"/>
<path clip-path="url(#clipPath4811)" d="m347.19763,562.3728h5.33292v30.93092h-5.33292z" fill="#c00" transform="translate(-128.40854,-539.4577)"/>
<path clip-path="url(#clipPath4811)" d="m361.53723,562.3728h5.33292v30.93092h-5.33292z" fill="#c4a000" transform="translate(-128.40854,-539.4577)"/>
<path d="m192.31697,28.0212c-7.31089,0-13.25001,4.65956-13.25,10.375s5.93911,10.34376 13.25,10.34375c2.92897,0 5.61866-.77124 7.8125-2.03125h28.28125c2.19626,1.26479 4.90869,2.03125 7.84375,2.03125 7.31089,0 13.24999-4.6283 13.25-10.34375s-5.9391-10.37499-13.25-10.375c-2.93507,0-5.64749.76646-7.84375,2.03125h-28.28125c-2.19384-1.26001-4.88353-2.03125-7.8125-2.03125z" fill="url(#linearGradient3309)" opacity=".44886"/>
<path d="m181.11338,36.974c1.84735-3.85415 6.55506-8.60499 11.24627-7.51172 .46173.28179.14089.86389-.19216,1.10463-3.07976,2.59258-4.33299.22366-5.56803,3.23311-1.38785,1.68253-3.55584,2.34351-5.48608,3.17398z" fill="#fff" filter="url(#filter5208)" opacity=".80682"/>
<path d="m225.34046,32.91338c-4.26621,1.32043-19.68072,1.17079-23.4544-.1032 5.91296-1.43276 17.19416-1.10527 23.4544.1032z" fill="#fff" filter="url(#filter5305)" opacity=".40909"/>
<path d="m360.0674,587.12692c.20853-6.32167 8.69739-14.18407 10.89124-8.2085 .08873,1.31239-2.92778.14068-5.5512,1.99737-2.65786,1.88106-4.92631,6.7785-5.34004,6.21113z" fill="#2e3436" filter="url(#filter5531)" opacity=".11364" transform="matrix(-1.416196,0,0,-.541196,756.69192,360.12614)"/>
<path d="m378.35113,570.18445a7.16479,7.54188 0 1,1 -14.32958,0 7.16479,7.54188 0 1,1 14.32958,0z" fill="#fff" filter="url(#filter6453)" opacity=".23864" transform="translate(-134.44204,-531.91582)"/>
</g>
</svg>
